<svg width="24" height="25" viewBox="0 0 24 25" fill="none" xmlns="http://www.w3.org/2000/svg">
    <g opacity="0.8">
        <path fill-rule="evenodd" clip-rule="evenodd" d="M15.2553 1.30261C15.1613 0.835788 14.7512 0.5 14.275 0.5H9.7242C9.24789 0.5 8.83769 0.835943 8.74381 1.30291L8.29708 3.52506C8.23324 3.84262 8.01785 4.10637 7.7297 4.25432C7.46356 4.39098 7.20419 4.5403 6.9525 4.70177C6.68083 4.87607 6.34597 4.93021 6.04004 4.8273L3.86691 4.09629C3.41656 3.9448 2.9218 4.13112 2.68325 4.54203L0.413846 8.45114C0.17351 8.86512 0.260264 9.39137 0.620765 9.7063L2.33228 11.2015C2.57685 11.4151 2.69878 11.7341 2.68341 12.0585C2.66947 12.3527 2.66947 12.6473 2.68341 12.9415C2.69878 13.2659 2.57685 13.5849 2.33228 13.7985L0.620862 15.2936C0.260317 15.6086 0.173592 16.1349 0.414021 16.5489L2.68438 20.4583C2.92293 20.869 3.41753 21.0553 3.86778 20.9039L6.04088 20.1734C6.34634 20.0707 6.68066 20.1246 6.95193 20.2985C7.20268 20.4593 7.46173 20.6087 7.72864 20.7457C8.01731 20.8938 8.23332 21.1578 8.29727 21.4759L8.74381 23.6971C8.83769 24.1641 9.24789 24.5 9.7242 24.5H14.2747C14.751 24.5 15.1612 24.1641 15.2551 23.6971L15.7018 21.4749C15.7657 21.1574 15.9811 20.8936 16.2692 20.7457C16.5353 20.609 16.7947 20.4597 17.0464 20.2982C17.3181 20.1239 17.6529 20.0698 17.9589 20.1727L20.1321 20.9038C20.5824 21.0552 21.0771 20.869 21.3157 20.4581L23.5859 16.5491C23.8264 16.135 23.7396 15.6086 23.3789 15.2936L21.6668 13.7985C21.4221 13.5849 21.3001 13.2658 21.3155 12.9414C21.3294 12.6473 21.3294 12.3526 21.3155 12.0585C21.3001 11.7341 21.4221 11.4151 21.6666 11.2015L23.378 9.70639C23.7386 9.39142 23.8253 8.86509 23.5849 8.45109L21.3146 4.54179C21.076 4.13099 20.5813 3.94473 20.1311 4.09615L17.9596 4.82638C17.6539 4.92919 17.3192 4.87516 17.0477 4.70111C16.796 4.53981 16.5366 4.39065 16.2705 4.25415C15.9822 4.1063 15.7667 3.84259 15.7028 3.52499L15.2553 1.30261ZM11.9995 5.85307C8.30232 5.85307 5.30946 8.83133 5.30946 12.5C5.30946 16.1687 8.30232 19.1469 11.9995 19.1469C15.6966 19.1469 18.6894 16.1687 18.6894 12.5C18.6894 8.83133 15.6966 5.85307 11.9995 5.85307Z" fill="url(#paint0_linear_2470_2644)"/>
        <path d="M11.9866 8C14.2634 8 15.6865 10.446 14.5479 12.4025C14.2883 12.8486 13.915 13.2191 13.4654 13.4767C13.0158 13.7343 12.5058 13.8699 11.9866 13.87C9.70987 13.87 8.28669 11.4239 9.42535 9.46749C9.68493 9.02133 10.0583 8.65083 10.5079 8.39323C10.9575 8.13563 11.4675 8.00001 11.9866 8Z" fill="url(#paint1_linear_2470_2644)"/>
        <path d="M11.9866 14.457C13.4039 14.457 14.6928 14.8643 15.641 15.4378C16.1142 15.7254 16.5188 16.063 16.811 16.4298C16.8788 16.5151 16.9424 16.6043 17 16.6969C15.8063 18.1049 14.0179 19 12.0177 19C9.9976 19 8.19359 18.087 7 16.6548C7.05032 16.5772 7.10476 16.5021 7.16221 16.4298C7.45442 16.063 7.85843 15.7254 8.33223 15.4378C9.28043 14.8643 10.5699 14.457 11.9866 14.457Z" fill="url(#paint2_linear_2470_2644)"/>
    </g>
    <defs>
        <linearGradient id="paint0_linear_2470_2644" x1="24" y1="4.96111" x2="9.0811" y2="26.3678" gradientUnits="userSpaceOnUse">
            <stop stop-color="#FECA5C"/>
            <stop offset="1" stop-color="#FE912A"/>
        </linearGradient>
        <linearGradient id="paint1_linear_2470_2644" x1="7" y1="12.7037" x2="15.8102" y2="10.1659" gradientUnits="userSpaceOnUse">
            <stop stop-color="#FECA5C"/>
            <stop offset="1" stop-color="#FE912A"/>
        </linearGradient>
        <linearGradient id="paint2_linear_2470_2644" x1="7" y1="12.7037" x2="15.8102" y2="10.1659" gradientUnits="userSpaceOnUse">
            <stop stop-color="#FECA5C"/>
            <stop offset="1" stop-color="#FE912A"/>
        </linearGradient>
    </defs>
</svg>
