<svg width="28" height="28" viewBox="0 0 28 28" fill="none" xmlns="http://www.w3.org/2000/svg">
    <path d="M17.1953 9.42218L8.26083 9.41429C7.61142 9.41372 7.08512 8.88741 7.08454 8.238C7.08397 7.58697 7.61188 7.05906 8.26291 7.05963L20.9137 7.0708C21.0792 7.07095 21.2133 7.20506 21.2134 7.37054L21.2142 8.2484L21.2246 20.0213C21.2252 20.6723 20.6973 21.2003 20.0462 21.1997C19.3968 21.1991 18.8705 20.6728 18.8699 20.0234L18.862 11.0889L8.73774 21.2132C8.27749 21.6735 7.53127 21.6735 7.07102 21.2132C6.61077 20.7529 6.61077 20.0067 7.07102 19.5465L17.1953 9.42218Z" fill="currentColor"/>
</svg>
