<svg width="16" height="21" viewBox="0 0 16 21" fill="none" xmlns="http://www.w3.org/2000/svg">
    <path d="M10.2583 9.90833L6.09166 5.74166C6.0124 5.66579 5.91895 5.60632 5.81666 5.56666C5.61377 5.48331 5.38621 5.48331 5.18332 5.56666C5.08103 5.60632 4.98758 5.66579 4.90832 5.74166L0.741658 9.90833C0.66396 9.98603 0.602326 10.0783 0.560276 10.1798C0.518225 10.2813 0.496582 10.3901 0.496582 10.5C0.496582 10.7219 0.584739 10.9347 0.741658 11.0917C0.898578 11.2486 1.11141 11.3367 1.33333 11.3367C1.55524 11.3367 1.76807 11.2486 1.92499 11.0917L4.66666 8.34166V14.6667C4.66666 14.8877 4.75446 15.0996 4.91074 15.2559C5.06702 15.4122 5.27898 15.5 5.49999 15.5C5.721 15.5 5.93297 15.4122 6.08925 15.2559C6.24553 15.0996 6.33332 14.8877 6.33332 14.6667V8.34166L9.07499 11.0917C9.15246 11.1698 9.24463 11.2318 9.34618 11.2741C9.44773 11.3164 9.55665 11.3382 9.66666 11.3382C9.77667 11.3382 9.88559 11.3164 9.98714 11.2741C10.0887 11.2318 10.1809 11.1698 10.2583 11.0917C10.3364 11.0142 10.3984 10.922 10.4407 10.8205C10.483 10.7189 10.5048 10.61 10.5048 10.5C10.5048 10.39 10.483 10.2811 10.4407 10.1795C10.3984 10.078 10.3364 9.9858 10.2583 9.90833Z" fill="currentColor"/>
</svg>
