<svg viewBox="0 0 16 16" fill="none" xmlns="http://www.w3.org/2000/svg">
    <path fill-rule="evenodd" clip-rule="evenodd" d="M7.64669 2.31334C7.74044 2.21971 7.86752 2.16711 8.00002 2.16711C8.13252 2.16711 8.2596 2.21971 8.35335 2.31334L12.3534 6.31334C12.4025 6.35912 12.4419 6.41432 12.4692 6.47565C12.4965 6.53698 12.5112 6.60319 12.5124 6.67033C12.5136 6.73746 12.5012 6.80415 12.4761 6.86641C12.451 6.92867 12.4135 6.98522 12.366 7.0327C12.3186 7.08018 12.262 7.11761 12.1998 7.14276C12.1375 7.1679 12.0708 7.18025 12.0037 7.17907C11.9365 7.17788 11.8703 7.16319 11.809 7.13586C11.7477 7.10853 11.6925 7.06913 11.6467 7.02001L8.50002 3.87334V13.3333C8.50002 13.466 8.44734 13.5931 8.35357 13.6869C8.25981 13.7807 8.13263 13.8333 8.00002 13.8333C7.86741 13.8333 7.74024 13.7807 7.64647 13.6869C7.5527 13.5931 7.50002 13.466 7.50002 13.3333V3.87334L4.35335 7.02001C4.30758 7.06913 4.25238 7.10853 4.19105 7.13586C4.12971 7.16319 4.0635 7.17788 3.99637 7.17907C3.92923 7.18025 3.86255 7.1679 3.80029 7.14276C3.73803 7.11761 3.68147 7.08018 3.634 7.0327C3.58652 6.98522 3.54909 6.92867 3.52394 6.86641C3.49879 6.80415 3.48644 6.73746 3.48763 6.67033C3.48881 6.60319 3.50351 6.53698 3.53083 6.47565C3.55816 6.41432 3.59756 6.35912 3.64669 6.31334L7.64669 2.31334Z" fill="currentColor"/>
</svg>
