<svg width="240" height="240" viewBox="0 0 240 240" fill="none" xmlns="http://www.w3.org/2000/svg">
<rect width="240" height="240" rx="120" fill="#FECA5C"/>
<path d="M120 159.45C140.233 159.45 158.633 165.661 172.17 174.414C178.925 178.782 184.701 183.937 188.873 189.54C192.977 195.044 196 201.631 196 208.675C196 216.238 192.529 222.198 187.53 226.45C182.801 230.477 176.561 233.144 169.932 235.006C156.607 238.738 138.823 240 120 240C101.177 240 83.3933 238.747 70.068 235.006C63.4391 233.144 57.1987 230.477 52.4698 226.45C47.4622 222.189 44 216.238 44 208.675C44 201.631 47.0231 195.044 51.1271 189.531C55.2987 183.937 61.0662 178.791 67.8302 174.405C81.3667 165.67 99.7756 159.45 120 159.45ZM120 61C131.198 61 141.937 65.7147 149.856 74.107C157.774 82.4992 162.222 93.8816 162.222 105.75C162.222 117.618 157.774 129.001 149.856 137.393C141.937 145.785 131.198 150.5 120 150.5C108.802 150.5 98.0626 145.785 90.1444 137.393C82.2262 129.001 77.7778 117.618 77.7778 105.75C77.7778 93.8816 82.2262 82.4992 90.1444 74.107C98.0626 65.7147 108.802 61 120 61Z" fill="white"/>
</svg>
