<svg width="41" height="41" viewBox="0 0 41 41" fill="none" xmlns="http://www.w3.org/2000/svg">
    <g filter="url(#filter0_f_1437_858)">
        <path d="M21.5912 20.4432C21.5912 17.1703 21.9411 14.6162 22.6407 12.7811C23.3524 10.927 24.5707 10 26.2956 10C28.0205 10 29.2328 10.927 29.9324 12.7811C30.6441 14.6162 31 17.1703 31 20.4432C31 23.7541 30.6441 26.3459 29.9324 28.2189C29.2328 30.073 28.0205 31 26.2956 31C24.5707 31 23.3524 30.073 22.6407 28.2189C21.9411 26.3459 21.5912 23.7541 21.5912 20.4432ZM28.9735 20.4432C28.9735 18.9108 28.9071 17.6149 28.7744 16.5554C28.6538 15.4959 28.4005 14.6351 28.0145 13.973C27.6285 13.2919 27.0555 12.9514 26.2956 12.9514C25.5357 12.9514 24.9627 13.2919 24.5767 13.973C24.1907 14.6351 23.9314 15.4959 23.7987 16.5554C23.6781 17.6149 23.6177 18.9108 23.6177 20.4432C23.6177 22.0324 23.6781 23.3662 23.7987 24.4446C23.9193 25.523 24.1726 26.3932 24.5586 27.0554C24.9567 27.7176 25.5357 28.0486 26.2956 28.0486C27.0555 28.0486 27.6285 27.7176 28.0145 27.0554C28.4126 26.3932 28.6719 25.523 28.7925 24.4446C28.9132 23.3662 28.9735 22.0324 28.9735 20.4432Z" fill="black"/>
    </g>
    <g filter="url(#filter1_f_1437_858)">
        <path d="M10 20.4432C10 17.1703 10.3498 14.6162 11.0494 12.7811C11.7611 10.927 12.9794 10 14.7044 10C16.4293 10 17.6416 10.927 18.3412 12.7811C19.0529 14.6162 19.4087 17.1703 19.4087 20.4432C19.4087 23.7541 19.0529 26.3459 18.3412 28.2189C17.6416 30.073 16.4293 31 14.7044 31C12.9794 31 11.7611 30.073 11.0494 28.2189C10.3498 26.3459 10 23.7541 10 20.4432ZM17.3822 20.4432C17.3822 18.9108 17.3159 17.6149 17.1832 16.5554C17.0626 15.4959 16.8093 14.6351 16.4233 13.973C16.0373 13.2919 15.4643 12.9514 14.7044 12.9514C13.9444 12.9514 13.3715 13.2919 12.9855 13.973C12.5995 14.6351 12.3401 15.4959 12.2074 16.5554C12.0868 17.6149 12.0265 18.9108 12.0265 20.4432C12.0265 22.0324 12.0868 23.3662 12.2074 24.4446C12.3281 25.523 12.5814 26.3932 12.9674 27.0554C13.3654 27.7176 13.9444 28.0486 14.7044 28.0486C15.4643 28.0486 16.0373 27.7176 16.4233 27.0554C16.8213 26.3932 17.0807 25.523 17.2013 24.4446C17.3219 23.3662 17.3822 22.0324 17.3822 20.4432Z" fill="black"/>
    </g>
    <defs>
        <filter id="filter0_f_1437_858" x="11.5912" y="0" width="29.4088" height="41" filterUnits="userSpaceOnUse" color-interpolation-filters="sRGB">
            <feFlood flood-opacity="0" result="BackgroundImageFix"/>
            <feBlend mode="normal" in="SourceGraphic" in2="BackgroundImageFix" result="shape"/>
            <feGaussianBlur stdDeviation="5" result="effect1_foregroundBlur_1437_858"/>
        </filter>
        <filter id="filter1_f_1437_858" x="0" y="0" width="29.4088" height="41" filterUnits="userSpaceOnUse" color-interpolation-filters="sRGB">
            <feFlood flood-opacity="0" result="BackgroundImageFix"/>
            <feBlend mode="normal" in="SourceGraphic" in2="BackgroundImageFix" result="shape"/>
            <feGaussianBlur stdDeviation="5" result="effect1_foregroundBlur_1437_858"/>
        </filter>
    </defs>
</svg>
