<svg viewBox="0 0 10 10" fill="none" xmlns="http://www.w3.org/2000/svg">
    <path d="M2.77778 2.77776C2.85145 2.77776 2.9221 2.7485 2.9742 2.6964C3.02629 2.64431 3.05556 2.57366 3.05556 2.49999V0.83332C3.05556 0.759649 3.02629 0.688995 2.9742 0.636901C2.9221 0.584808 2.85145 0.555542 2.77778 0.555542C2.70411 0.555542 2.63345 0.584808 2.58136 0.636901C2.52927 0.688995 2.5 0.759649 2.5 0.83332V2.49999C2.5 2.57366 2.52927 2.64431 2.58136 2.6964C2.63345 2.7485 2.70411 2.77776 2.77778 2.77776Z" fill="currentColor"/>
    <path d="M7.22224 2.77776C7.29591 2.77776 7.36656 2.7485 7.41865 2.6964C7.47075 2.64431 7.50001 2.57366 7.50001 2.49999V0.83332C7.50001 0.759649 7.47075 0.688995 7.41865 0.636901C7.36656 0.584808 7.29591 0.555542 7.22224 0.555542C7.14856 0.555542 7.07791 0.584808 7.02582 0.636901C6.97372 0.688995 6.94446 0.759649 6.94446 0.83332V2.49999C6.94446 2.57366 6.97372 2.64431 7.02582 2.6964C7.07791 2.7485 7.14856 2.77776 7.22224 2.77776Z" fill="currentColor"/>
    <path d="M8.95839 1.66666H7.84728V2.49999C7.84728 2.66207 7.7829 2.81751 7.66829 2.93211C7.55368 3.04672 7.39825 3.1111 7.23617 3.1111C7.07409 3.1111 6.91865 3.04672 6.80405 2.93211C6.68944 2.81751 6.62506 2.66207 6.62506 2.49999V1.66666H3.38895V2.49999C3.38895 2.66207 3.32456 2.81751 3.20996 2.93211C3.09535 3.04672 2.93991 3.1111 2.77784 3.1111C2.61576 3.1111 2.46032 3.04672 2.34572 2.93211C2.23111 2.81751 2.16672 2.66207 2.16672 2.49999V1.66666H1.05561C0.989509 1.66591 0.923925 1.67842 0.86274 1.70345C0.801555 1.72849 0.746011 1.76554 0.699395 1.81242C0.652779 1.85929 0.616036 1.91504 0.591339 1.97636C0.566643 2.03768 0.554495 2.10334 0.555613 2.16944V8.3861C0.55451 8.45104 0.566209 8.51555 0.590043 8.57596C0.613877 8.63637 0.649378 8.6915 0.694519 8.73819C0.739661 8.78488 0.793558 8.82222 0.853132 8.84807C0.912706 8.87393 0.97679 8.88779 1.04172 8.88888H8.95839C9.02333 8.88779 9.08741 8.87393 9.14698 8.84807C9.20656 8.82222 9.26046 8.78488 9.3056 8.73819C9.35074 8.6915 9.38624 8.63637 9.41007 8.57596C9.43391 8.51555 9.44561 8.45104 9.4445 8.3861V2.16944C9.44561 2.1045 9.43391 2.03999 9.41007 1.97958C9.38624 1.91916 9.35074 1.86404 9.3056 1.81735C9.26046 1.77066 9.20656 1.73332 9.14698 1.70747C9.08741 1.68161 9.02333 1.66774 8.95839 1.66666ZM7.20561 4.60555L4.5195 7.29166L3.05561 5.81666C2.99076 5.74533 2.95563 5.6519 2.95742 5.55551C2.9592 5.45912 2.99778 5.36706 3.06523 5.29818C3.13269 5.22931 3.22392 5.18883 3.32026 5.18503C3.41659 5.18124 3.51073 5.21441 3.58339 5.27777L4.52228 6.21666L6.66673 4.07221C6.70193 4.03701 6.74372 4.00909 6.78971 3.99004C6.8357 3.97099 6.885 3.96118 6.93478 3.96118C6.98456 3.96118 7.03386 3.97099 7.07985 3.99004C7.12584 4.00909 7.16763 4.03701 7.20284 4.07221C7.23804 4.10741 7.26596 4.14921 7.28501 4.1952C7.30406 4.24119 7.31387 4.29049 7.31387 4.34027C7.31387 4.39005 7.30406 4.43935 7.28501 4.48534C7.26596 4.53133 7.23804 4.57312 7.20284 4.60832L7.20561 4.60555Z" fill="currentColor"/>
</svg>
