<svg width="21" height="21" viewBox="0 0 21 21" fill="none" xmlns="http://www.w3.org/2000/svg">
<path d="M10.3936 3.0039L10.5114 2.83839L10.6293 3.00448L18.7222 14.4036C19.7161 15.8035 20.25 17.4779 20.25 19.1947C20.25 19.7775 19.7775 20.25 19.1947 20.25H1.80279C1.22135 20.25 0.75 19.7787 0.75 19.1972C0.75 17.48 1.28496 15.8054 2.28053 14.4062L10.3936 3.0039Z" stroke="white" stroke-width="1.5"/>
<path d="M11.0251 13.1751L11.0251 10.1251C11.0251 9.83515 10.79 9.6001 10.5001 9.6001C10.2101 9.6001 9.97505 9.83515 9.97505 10.1251L9.97508 13.1751C9.97508 13.2303 9.9303 13.2751 9.87508 13.2751H6.82505C6.5351 13.2751 6.30005 13.5101 6.30005 13.8001C6.30005 14.09 6.5351 14.3251 6.82505 14.3251H9.87505C9.93028 14.3251 9.97505 14.3699 9.97505 14.4251V17.4751C9.97505 17.765 10.2101 18.0001 10.5 18.0001C10.79 18.0001 11.025 17.765 11.025 17.4751V14.4251C11.025 14.3699 11.0698 14.3251 11.125 14.3251H14.1751C14.465 14.3251 14.7001 14.09 14.7001 13.8001C14.7001 13.5101 14.465 13.2751 14.1751 13.2751H11.1251C11.0698 13.2751 11.0251 13.2303 11.0251 13.1751Z" fill="white"/>
</svg>
