<svg xmlns="http://www.w3.org/2000/svg" width="21" height="21" viewBox="0 0 21 21" fill="none">
  <path
    d="M1.80279 21C0.807137 21 0 20.1929 0 19.1972C0 17.3241 0.583512 15.4975 1.66944 13.9714L9.36684 3.15326C9.61532 2.80405 9.61363 2.33533 9.36265 1.98792L8.79482 1.2019C8.60711 0.942061 8.65895 0.580227 8.91207 0.383546C9.18066 0.174842 9.56923 0.23334 9.76447 0.51187L9.87268 0.666245C10.1791 1.10342 10.8256 1.10676 11.1365 0.672767L11.2553 0.506946C11.4524 0.231912 11.8396 0.17805 12.1043 0.38887C12.3497 0.584372 12.3996 0.937528 12.218 1.1934L11.6516 1.99145C11.4056 2.33813 11.4057 2.80246 11.6517 3.1491L19.3337 13.9694C20.4177 15.4962 21 17.3223 21 19.1947C21 20.1918 20.1918 21 19.1947 21H1.80279ZM5.69217 19.7813H15.3078H10.5H5.69217Z"
    fill="#F8F8F8" />
  <path
    d="M10.4997 20.1923C9.69044 20.1922 8.8999 19.949 8.23054 19.4943C7.56118 19.0395 7.04387 18.3942 6.7457 17.6419C6.44752 16.8896 6.38223 16.0651 6.55828 15.2752C6.73433 14.4854 7.14361 13.7666 7.73305 13.2122C8.45567 12.5321 10.2304 11.3077 9.9612 8.61536C13 11.4999 14.2689 13.7289 11.5766 16.1538C12.1151 16.1538 12.9227 16.1538 14.2689 14.8238C14.4143 15.24 14.5381 15.6875 14.5381 16.1538C14.5381 17.2249 14.1126 18.2521 13.3553 19.0094C12.5979 19.7668 11.5707 20.1923 10.4997 20.1923Z"
    fill="#8B103E" />
</svg>