<svg width="24" height="24" viewBox="0 0 24 24" fill="none" xmlns="http://www.w3.org/2000/svg">
    <g clip-path="url(#clip0_1389_333)">
        <path d="M11.0567 1.6401L10.6497 1.93051L11.0567 1.64009L10.4582 0.801386C10.3979 0.716868 10.4162 0.599386 10.4944 0.537865C10.5734 0.4757 10.6881 0.491052 10.7483 0.577983C10.7483 0.577988 10.7483 0.577994 10.7483 0.577999L10.872 0.756608L10.872 0.756619C11.4197 1.54778 12.5797 1.55397 13.1356 0.768372L13.2714 0.576525L12.8634 0.287828L13.2714 0.576522C13.3309 0.492391 13.4429 0.478495 13.5195 0.540217C13.5941 0.600377 13.6114 0.713163 13.554 0.794964L13.554 0.794975L12.9562 1.64789L12.9562 1.64791C12.5247 2.26353 12.5247 3.08683 12.9563 3.70246L21.6863 16.1521C22.8658 17.8342 23.5 19.8469 23.5 21.9112C23.5 22.7945 22.7943 23.5 21.9369 23.5H2.06034C1.20441 23.5 0.5 22.7957 0.5 21.914C0.5 19.8491 1.13538 17.8361 2.31701 16.1548L1.93045 15.8831L2.31702 16.1548L11.064 3.70836C11.4999 3.08821 11.4969 2.25712 11.0567 1.6401Z"
              stroke="currentColor"/>
        <path d="M11.9998 23C11.1983 22.9999 10.4152 22.7689 9.75221 22.3368C9.08919 21.9047 8.5768 21.2915 8.28145 20.5767C7.9861 19.8618 7.92144 19.0784 8.09581 18.328C8.2702 17.5775 8.6756 16.8946 9.25944 16.3678C9.9752 15.7216 11.7331 14.5581 11.4665 12C14.4764 14.7407 15.7333 16.8587 13.0665 19.1627C13.5999 19.1627 14.3999 19.1627 15.7333 17.8991C15.8773 18.2946 16 18.7197 16 19.1627C16 20.1805 15.5785 21.1565 14.8284 21.8761C14.0782 22.5957 13.0607 23 11.9998 23Z"
              fill="currentColor"/>
    </g>
    <defs>
        <clipPath id="clip0_1389_333">
            <rect width="24" height="24" fill="white"/>
        </clipPath>
    </defs>
</svg>
