<svg width="21" height="21" viewBox="0 0 21 21" fill="none" xmlns="http://www.w3.org/2000/svg">
    <path d="M5.74162 13.4084C5.66351 13.4858 5.60151 13.578 5.55921 13.6795C5.5169 13.7811 5.49512 13.89 5.49512 14C5.49512 14.11 5.5169 14.219 5.55921 14.3205C5.60151 14.4221 5.66351 14.5142 5.74162 14.5917L9.90828 18.7584C9.98575 18.8365 10.0779 18.8985 10.1795 18.9408C10.281 18.9831 10.3899 19.0049 10.4999 19.0049C10.61 19.0049 10.7189 18.9831 10.8204 18.9408C10.922 18.8985 11.0141 18.8365 11.0916 18.7584L15.2583 14.5917C15.3364 14.5142 15.3984 14.4221 15.4407 14.3205C15.483 14.219 15.5048 14.11 15.5048 14C15.5048 13.89 15.483 13.7811 15.4407 13.6795C15.3984 13.578 15.3364 13.4858 15.2583 13.4084C15.1808 13.3302 15.0886 13.2683 14.9871 13.2259C14.8855 13.1836 14.7766 13.1619 14.6666 13.1619C14.5566 13.1619 14.4477 13.1836 14.3461 13.2259C14.2446 13.2683 14.1524 13.3302 14.0749 13.4084L10.4999 16.9917L6.92495 13.4084C6.84748 13.3302 6.75531 13.2683 6.65376 13.2259C6.55221 13.1836 6.44329 13.1619 6.33328 13.1619C6.22327 13.1619 6.11435 13.1836 6.0128 13.2259C5.91125 13.2683 5.81908 13.3302 5.74162 13.4084ZM9.90828 2.24169L5.74162 6.40835C5.66392 6.48605 5.60228 6.57829 5.56023 6.67981C5.51818 6.78133 5.49654 6.89014 5.49654 7.00002C5.49654 7.22194 5.5847 7.43477 5.74162 7.59169C5.81931 7.66939 5.91156 7.73102 6.01307 7.77307C6.11459 7.81512 6.2234 7.83676 6.33328 7.83676C6.5552 7.83676 6.76803 7.74861 6.92495 7.59169L10.4999 4.00835L14.0749 7.59169C14.1524 7.66979 14.2446 7.73179 14.3461 7.7741C14.4477 7.8164 14.5566 7.83819 14.6666 7.83819C14.7766 7.83819 14.8855 7.8164 14.9871 7.7741C15.0886 7.73179 15.1808 7.66979 15.2583 7.59169C15.3364 7.51422 15.3984 7.42205 15.4407 7.3205C15.483 7.21895 15.5048 7.11003 15.5048 7.00002C15.5048 6.89001 15.483 6.78109 15.4407 6.67954C15.3984 6.57799 15.3364 6.48582 15.2583 6.40835L11.0916 2.24169C11.0141 2.16358 10.922 2.10158 10.8204 2.05928C10.7189 2.01697 10.61 1.99519 10.4999 1.99519C10.3899 1.99519 10.281 2.01697 10.1795 2.05928C10.0779 2.10158 9.98575 2.16358 9.90828 2.24169Z" fill="currentColor"/>
</svg>
