<svg width="14" height="14" viewBox="0 0 14 14" fill="none" xmlns="http://www.w3.org/2000/svg">
    <path d="M14 7C14 10.866 10.866 14 7 14C3.13401 14 0 10.866 0 7C0 3.13401 3.13401 0 7 0C10.866 0 14 3.13401 14 7ZM1.26 7C1.26 10.1701 3.82989 12.74 7 12.74C10.1701 12.74 12.74 10.1701 12.74 7C12.74 3.82989 10.1701 1.26 7 1.26C3.82989 1.26 1.26 3.82989 1.26 7Z" fill="currentColor"/>
    <path d="M6.5 3V7.30218C6.5 7.42219 6.57152 7.53065 6.68182 7.57792L10 9" stroke="currentColor" stroke-linecap="round"/>
</svg>
