<svg width="30" height="30" viewBox="0 0 30 30" fill="none" xmlns="http://www.w3.org/2000/svg">
<path d="M8.25 14.2462C8.25 10.8387 8.25 9.13499 9.30375 8.07624C10.3588 7.01749 12.055 7.01749 15.45 7.01749H19.05C22.4438 7.01749 24.1413 7.01749 25.195 8.07624C26.25 9.13499 26.25 10.8387 26.25 14.2462V20.2712C26.25 23.6787 26.25 25.3825 25.195 26.4412C24.1413 27.5 22.4438 27.5 19.05 27.5H15.45C12.055 27.5 10.3588 27.5 9.30375 26.4412C8.25 25.3825 8.25 23.6787 8.25 20.2712V14.2462Z" fill="#FECA5C"/>
<path opacity="0.5" d="M5.215 3.965C3.75 5.42875 3.75 7.78625 3.75 12.5V15C3.75 19.7137 3.75 22.0712 5.215 23.535C5.98625 24.3075 7.00625 24.6725 8.49 24.845C8.25 23.795 8.25 22.35 8.25 20.27V14.2463C8.25 10.8387 8.25 9.135 9.30375 8.07625C10.3587 7.0175 12.055 7.0175 15.45 7.0175H19.05C21.115 7.0175 22.55 7.0175 23.5975 7.255C23.425 5.76375 23.06 4.74 22.285 3.965C20.8212 2.5 18.4637 2.5 13.75 2.5C9.03625 2.5 6.67875 2.5 5.215 3.965Z" fill="#FECA5C"/>
</svg>
