<svg width="20" height="21" viewBox="0 0 20 21" fill="none" xmlns="http://www.w3.org/2000/svg">
    <path d="M6.66663 3.83341V13.8334C6.66663 14.2754 6.84222 14.6994 7.15478 15.0119C7.46734 15.3245 7.89127 15.5001 8.33329 15.5001H15C15.442 15.5001 15.8659 15.3245 16.1785 15.0119C16.491 14.6994 16.6666 14.2754 16.6666 13.8334V6.53508C16.6666 6.31305 16.6222 6.09326 16.5361 5.88862C16.4499 5.68398 16.3237 5.49862 16.165 5.34341L13.4025 2.64175C13.0911 2.3373 12.6729 2.1668 12.2375 2.16675H8.33329C7.89127 2.16675 7.46734 2.34234 7.15478 2.6549C6.84222 2.96746 6.66663 3.39139 6.66663 3.83341Z"
          stroke="currentColor" stroke-linecap="round" stroke-linejoin="round"/>
    <path d="M13.3333 15.5002V17.1668C13.3333 17.6089 13.1577 18.0328 12.8452 18.3453C12.5326 18.6579 12.1087 18.8335 11.6666 18.8335H4.99998C4.55795 18.8335 4.13403 18.6579 3.82147 18.3453C3.50891 18.0328 3.33331 17.6089 3.33331 17.1668V8.00016C3.33331 7.55814 3.50891 7.13421 3.82147 6.82165C4.13403 6.50909 4.55795 6.3335 4.99998 6.3335H6.66665"
          stroke="currentColor" stroke-linecap="round" stroke-linejoin="round"/>
</svg>
