<svg width="11" height="11" viewBox="0 0 11 11" fill="none" xmlns="http://www.w3.org/2000/svg">
<path d="M2.14686 2.14686C2.1933 2.10031 2.24846 2.06337 2.30919 2.03817C2.36992 2.01297 2.43503 2 2.50078 2C2.56654 2 2.63164 2.01297 2.69238 2.03817C2.75311 2.06337 2.80827 2.10031 2.85471 2.14686L5.50013 4.79329L8.14555 2.14686C8.19203 2.10038 8.24721 2.06352 8.30794 2.03836C8.36866 2.01321 8.43375 2.00026 8.49948 2.00026C8.56521 2.00026 8.63029 2.01321 8.69102 2.03836C8.75175 2.06352 8.80692 2.10038 8.8534 2.14686C8.89988 2.19334 8.93675 2.24852 8.9619 2.30924C8.98705 2.36997 9 2.43505 9 2.50078C9 2.56651 8.98705 2.6316 8.9619 2.69233C8.93675 2.75305 8.89988 2.80823 8.8534 2.85471L6.20698 5.50013L8.8534 8.14555C8.89988 8.19203 8.93675 8.24721 8.9619 8.30794C8.98705 8.36866 9 8.43375 9 8.49948C9 8.56521 8.98705 8.63029 8.9619 8.69102C8.93675 8.75175 8.89988 8.80692 8.8534 8.8534C8.80692 8.89988 8.75175 8.93675 8.69102 8.9619C8.63029 8.98705 8.56521 9 8.49948 9C8.43375 9 8.36866 8.98705 8.30794 8.9619C8.24721 8.93675 8.19203 8.89988 8.14555 8.8534L5.50013 6.20698L2.85471 8.8534C2.80823 8.89988 2.75305 8.93675 2.69233 8.9619C2.6316 8.98705 2.56651 9 2.50078 9C2.43505 9 2.36997 8.98705 2.30924 8.9619C2.24852 8.93675 2.19334 8.89988 2.14686 8.8534C2.10038 8.80692 2.06352 8.75175 2.03836 8.69102C2.01321 8.63029 2.00026 8.56521 2.00026 8.49948C2.00026 8.43375 2.01321 8.36866 2.03836 8.30794C2.06352 8.24721 2.10038 8.19203 2.14686 8.14555L4.79329 5.50013L2.14686 2.85471C2.10031 2.80827 2.06337 2.75311 2.03817 2.69238C2.01297 2.63164 2 2.56654 2 2.50078C2 2.43503 2.01297 2.36992 2.03817 2.30919C2.06337 2.24846 2.10031 2.1933 2.14686 2.14686Z" fill="#8B103E"/>
</svg>
