<svg width="24" height="24" viewBox="0 0 24 24" fill="none" xmlns="http://www.w3.org/2000/svg">
    <path d="M8.29133 4.01405H15.7083V5.73637H17.1917V4.10236C17.1917 3.25794 16.5265 2.57141 15.7083 2.57141H8.29133C7.47315 2.57141 6.80794 3.25794 6.80794 4.10236V5.73637H8.29133V4.01405ZM19.8297 5.73637H4.17028C3.76003 5.73637 3.42859 6.07844 3.42859 6.50184V7.08439C3.42859 7.18964 3.51203 7.27576 3.61401 7.27576H5.01396L5.58646 19.9694C5.62355 20.7851 6.27716 21.4286 7.06753 21.4286H16.9325C17.7252 21.4286 18.3765 20.7875 18.4136 19.9694L18.9861 7.27576H20.386C20.488 7.27576 20.5714 7.18964 20.5714 7.08439V6.50184C20.5714 6.07844 20.24 5.73637 19.8297 5.73637ZM16.9325 19.9694H7.06753L6.51862 7.27576H17.4192L16.9325 19.9694Z" fill="currentColor"/>
</svg>
