<svg width="16" height="21" viewBox="0 0 16 21" fill="none" xmlns="http://www.w3.org/2000/svg">
    <path d="M0.741677 11.0917L4.90834 15.2583C4.9876 15.3342 5.08105 15.3937 5.18334 15.4333C5.38623 15.5167 5.61379 15.5167 5.81668 15.4333C5.91897 15.3937 6.01242 15.3342 6.09168 15.2583L10.2583 11.0917C10.336 11.014 10.3977 10.9217 10.4397 10.8202C10.4818 10.7187 10.5034 10.6099 10.5034 10.5C10.5034 10.2781 10.4153 10.0653 10.2583 9.90834C10.1014 9.75142 9.88859 9.66326 9.66667 9.66326C9.44476 9.66326 9.23193 9.75142 9.07501 9.90834L6.33334 12.6583V6.33334C6.33334 6.11232 6.24554 5.90036 6.08926 5.74408C5.93298 5.5878 5.72102 5.5 5.50001 5.5C5.279 5.5 5.06703 5.5878 4.91075 5.74408C4.75447 5.90036 4.66668 6.11232 4.66668 6.33334V12.6583L1.92501 9.90834C1.84754 9.83023 1.75537 9.76824 1.65382 9.72593C1.55227 9.68362 1.44335 9.66184 1.33334 9.66184C1.22333 9.66184 1.11441 9.68362 1.01286 9.72593C0.911313 9.76824 0.819146 9.83023 0.741677 9.90834C0.66357 9.98581 0.601573 10.078 0.559266 10.1795C0.516959 10.2811 0.495177 10.39 0.495177 10.5C0.495177 10.61 0.516959 10.7189 0.559266 10.8205C0.601573 10.922 0.66357 11.0142 0.741677 11.0917Z" fill="currentColor"/>
</svg>
