<svg viewBox="0 0 16 16" fill="none" xmlns="http://www.w3.org/2000/svg">
    <path fill-rule="evenodd" clip-rule="evenodd" d="M8.35331 13.6867C8.25956 13.7803 8.13248 13.8329 7.99998 13.8329C7.86748 13.8329 7.7404 13.7803 7.64665 13.6867L3.64665 9.68666C3.59752 9.64088 3.55812 9.58568 3.53079 9.52435C3.50346 9.46302 3.48877 9.39681 3.48759 9.32967C3.4864 9.26254 3.49875 9.19585 3.5239 9.13359C3.54905 9.07134 3.58648 9.01478 3.63396 8.9673C3.68143 8.91982 3.73799 8.88239 3.80025 8.85724C3.86251 8.8321 3.92919 8.81975 3.99633 8.82093C4.06346 8.82212 4.12967 8.83681 4.19101 8.86414C4.25234 8.89147 4.30754 8.93087 4.35331 8.97999L7.49998 12.1267L7.49998 2.66666C7.49998 2.53405 7.55266 2.40687 7.64643 2.31311C7.74019 2.21934 7.86737 2.16666 7.99998 2.16666C8.13259 2.16666 8.25976 2.21934 8.35353 2.31311C8.4473 2.40687 8.49998 2.53405 8.49998 2.66666L8.49998 12.1267L11.6466 8.97999C11.6924 8.93087 11.7476 8.89147 11.809 8.86414C11.8703 8.83681 11.9365 8.82212 12.0036 8.82093C12.0708 8.81975 12.1375 8.8321 12.1997 8.85724C12.262 8.88239 12.3185 8.91982 12.366 8.9673C12.4135 9.01478 12.4509 9.07134 12.4761 9.13359C12.5012 9.19585 12.5136 9.26254 12.5124 9.32967C12.5112 9.39681 12.4965 9.46302 12.4692 9.52435C12.4418 9.58568 12.4024 9.64088 12.3533 9.68666L8.35331 13.6867Z" fill="currentColor"/>
</svg>
