<svg width="20" height="20" viewBox="0 0 20 20" fill="none" xmlns="http://www.w3.org/2000/svg">
  <path d="M10.796 2.41396C10.4846 1.86201 9.51622 1.86201 9.20483 2.41396L1.10524 16.7611C1.03233 16.8897 0.996179 17.0338 1.00032 17.1794C1.00446 17.325 1.04875 17.4671 1.12886 17.5918C1.20898 17.7166 1.3222 17.8198 1.45748 17.8913C1.59276 17.9628 1.74549 18.0003 1.9008 18H18.1C18.2552 18.0003 18.4078 17.9629 18.543 17.8914C18.6782 17.8199 18.7913 17.7168 18.8714 17.5921C18.9514 17.4674 18.9956 17.3254 18.9997 17.1799C19.0038 17.0344 18.9676 16.8904 18.8946 16.7619L10.796 2.41396ZM10.9003 16.1879H9.10044V14.5H10.9003V16.1879ZM9.09954 13.6302L9.10044 7.87262H10.9003V13.6302H9.09954Z" fill="currentColor" />
</svg>