<svg width="80" height="48" viewBox="0 0 80 48" fill="none" xmlns="http://www.w3.org/2000/svg">
<path d="M66.5822 28.622C63.6655 34.9878 48.9688 39.111 41.3115 39.111C28.5174 39.111 21.0323 36.0642 13.3454 28.3774C21.0323 20.69 28.5174 17.6436 41.3115 17.6436C48.9688 17.6436 63.6652 21.7671 66.5822 28.1326" fill="white"/>
<path d="M66.0451 28.3058C64.1816 32.1423 59.508 34.1631 55.7644 35.5739C51.3856 37.2243 46.6369 38.3137 41.9563 38.4751C36.7287 38.6555 31.32 38.0468 26.3673 36.3166C21.5298 34.6265 17.4018 31.5203 13.7849 27.9343C13.7849 28.2296 13.7849 28.5249 13.7849 28.8199C17.3265 25.3084 21.2959 22.3619 25.9709 20.5819C31.0148 18.6616 36.602 18.1649 41.956 18.2788C46.4966 18.3753 51.089 19.5176 55.3531 21.0299C59.2164 22.4003 64.1342 24.515 66.0445 28.4484C66.3971 29.174 67.4695 28.539 67.1185 27.816C65.2255 23.9193 60.6955 21.8006 56.9068 20.2829C52.2954 18.4358 47.2519 17.2715 42.2893 17.0374C36.7393 16.7754 30.8751 17.4633 25.6402 19.3739C20.7576 21.1555 16.5775 24.2932 12.9052 27.9343C12.6651 28.1721 12.6651 28.5821 12.9052 28.8199C16.607 32.4901 20.7573 35.5212 25.6402 37.38C30.8552 39.3654 36.7532 39.9073 42.2893 39.7165C47.2559 39.5451 52.2891 38.2649 56.9068 36.4709C60.6941 34.9997 65.2388 32.8081 67.1185 28.9379C67.4701 28.2156 66.3974 27.5802 66.0451 28.3058Z" fill="#231F20"/>
<path d="M66.5817 28.6215C64.2701 18.1439 49.0519 13.3452 41.3946 13.3452C28.6005 13.3452 14.6392 19.3776 13.3449 28.3767C21.0318 20.6892 28.5169 17.6428 41.311 17.6428C48.9683 17.6428 63.6647 21.7663 66.5817 28.1318" fill="#EFCEAB"/>
<path d="M67.1815 28.4551C64.7688 18.2621 52.1439 13.4574 42.8383 12.7702C36.4454 12.2979 29.6306 13.8276 23.8126 16.4341C18.8914 18.6386 13.6761 22.5082 12.7453 28.2103C12.6488 28.8006 13.3082 29.2923 13.7849 28.8196C17.3265 25.3081 21.2959 22.3616 25.9709 20.5816C31.0148 18.6613 36.602 18.1646 41.956 18.2785C46.4966 18.375 51.0891 19.5173 55.3531 21.0296C59.2164 22.4 64.1342 24.5147 66.0445 28.4481C66.3971 29.1737 67.4695 28.5387 67.1185 27.8157C65.2255 23.9191 60.6955 21.8003 56.9068 20.2826C52.2954 18.4355 47.2519 17.2713 42.2893 17.0371C36.7393 16.7751 30.8752 17.463 25.6402 19.3736C20.7576 21.1552 16.5775 24.2929 12.9052 27.934C13.2515 28.1371 13.5981 28.3402 13.9448 28.5433C14.8351 23.0879 19.798 19.6756 24.4405 17.5158C29.96 14.9481 36.4713 13.7093 42.5378 14.0047C47.1859 14.2308 51.8981 15.6874 56.0384 17.777C60.5571 20.0575 64.7664 23.6535 65.9818 28.7882C66.1682 29.5736 67.3676 29.2406 67.1815 28.4551Z" fill="#231F20"/>
<path d="M50.1235 28.3773C50.8904 22.7788 45.5749 18.1445 39.9638 18.1445C34.3524 18.1445 29.2701 22.5737 29.8038 28.3773C30.3213 34.0045 34.3524 38.6097 39.9638 38.6097C45.5749 38.6097 49.3165 34.2684 50.1235 28.3773Z" fill="#27AAB8"/>
<path d="M50.5382 28.3776C51.194 22.283 45.6217 17.8562 39.9639 17.7272C34.3362 17.599 29.2705 22.1788 29.3581 27.9102C29.4456 33.6246 33.8247 38.6264 39.4998 39.0173C45.6784 39.4429 49.6718 34.107 50.5233 28.4889C50.6029 27.962 49.8038 27.7358 49.7235 28.2667C48.9822 33.1603 46.0725 37.5961 40.8571 38.155C35.3516 38.7453 31.2544 34.3128 30.322 29.1944C29.2738 23.441 34.0878 18.9172 39.5101 18.5721C44.9115 18.2284 50.3173 22.7247 49.7089 28.3779C49.6516 28.9128 50.4815 28.9071 50.5382 28.3776Z" fill="#231F20"/>
<path d="M44.7094 28.3751C44.7081 25.7356 42.5822 23.5965 39.9618 23.5981C37.3406 23.5998 35.2171 25.7409 35.2188 28.3805C35.2201 31.0197 37.346 33.1588 39.9667 33.1571C42.5872 33.1557 44.7111 31.0147 44.7094 28.3751Z" fill="#231F20"/>
<path d="M39.7125 17.2817C40.0893 14.6171 39.8478 11.7777 39.8273 9.09677C39.806 6.30188 39.7414 3.50666 39.7347 0.711442C39.7327 -0.0963554 38.4889 -0.0966895 38.4908 0.711442C38.4971 3.38406 38.5575 6.057 38.5807 8.72962C38.604 11.4036 38.8892 14.291 38.5131 16.9486C38.4013 17.7387 39.5997 18.0791 39.7125 17.2817Z" fill="#231F20"/>
<path d="M29.0989 18.6795C28.7092 16.08 27.6673 13.4746 26.9017 10.972C26.0848 8.30073 25.226 5.64181 24.4226 2.96652C24.1911 2.19548 22.9903 2.52421 23.2232 3.2996C23.9914 5.85762 24.811 8.40062 25.5948 10.9543C26.3976 13.5691 27.4922 16.2959 27.8995 19.0129C28.0189 19.809 29.2173 19.4693 29.0989 18.6795Z" fill="#231F20"/>
<path d="M20.7709 22.4076C19.8232 19.895 18.2443 17.5271 16.942 15.1929C15.5824 12.7561 14.1846 10.3404 12.8375 7.89664C12.4481 7.19041 11.3738 7.82181 11.7635 8.52905C13.0515 10.8659 14.3866 13.1767 15.6889 15.5052C16.9941 17.8388 18.6234 20.2278 19.5711 22.7407C19.8534 23.4883 21.0561 23.1643 20.7709 22.4076Z" fill="#231F20"/>
<path d="M13.7849 27.7075C12.002 25.7876 9.67776 24.2348 7.63946 22.6095C5.4635 20.8743 3.26 19.1732 1.09366 17.4263C0.47404 16.9266 -0.412264 17.8072 0.21432 18.312C2.2858 19.9827 4.39177 21.6103 6.47419 23.2673C8.60637 24.9641 11.0421 26.5867 12.9056 28.5932C13.4545 29.1845 14.3322 28.2969 13.7849 27.7075Z" fill="#231F20"/>
<path d="M50.3268 18.662C50.7165 16.0625 51.7584 13.4571 52.524 10.9545C53.341 8.28322 54.2001 5.6243 55.0031 2.94901C55.236 2.17362 54.0352 1.84489 53.8037 2.61594C53.0355 5.1743 52.2162 7.71729 51.432 10.2706C50.6293 12.8855 49.5347 15.6122 49.1274 18.3292C49.0089 19.119 50.2074 19.4588 50.3268 18.662Z" fill="#231F20"/>
<path d="M60.5668 22.3899C61.5145 19.8766 63.1445 17.489 64.4491 15.1544C65.7503 12.8249 67.0864 10.5148 68.3748 8.17791C68.7645 7.471 67.6901 6.83926 67.3007 7.5455C65.9537 9.98928 64.5575 12.406 63.1962 14.8421C61.893 17.1749 60.3151 19.5442 59.3677 22.0568C59.0821 22.8135 60.2849 23.1375 60.5668 22.3899Z" fill="#231F20"/>
<path d="M39.6073 17.1762C39.9842 14.5116 39.7427 11.6723 39.7221 8.9913C39.7009 6.19642 39.6362 3.40119 39.6296 0.605974C39.6276 -0.201824 38.3837 -0.202158 38.3857 0.605974C38.392 3.27859 38.4524 5.95154 38.4756 8.62415C38.4988 11.2981 38.7841 14.1855 38.4079 16.8431C38.2961 17.6329 39.4946 17.9733 39.6073 17.1762Z" fill="#231F20"/>
<path d="M28.9939 18.5735C28.6042 15.9741 27.5623 13.3686 26.7968 10.866C25.9798 8.19477 25.1207 5.53586 24.3176 2.86057C24.0861 2.08952 22.8853 2.41825 23.1182 3.19364C23.8861 5.752 24.7057 8.29499 25.4898 10.8483C26.2926 13.4632 27.3872 16.1899 27.7945 18.9069C27.9143 19.7034 29.1124 19.3633 28.9939 18.5735Z" fill="#231F20"/>
<path d="M20.6665 22.3016C19.7192 19.7891 18.1399 17.4211 16.838 15.0869C15.4784 12.6502 14.0806 10.2345 12.7335 7.79069C12.3441 7.08445 11.2697 7.71585 11.6595 8.42309C12.9475 10.76 14.2826 13.0708 15.5849 15.3993C16.8901 17.7328 18.5194 20.1218 19.4671 22.6347C19.749 23.3824 20.9518 23.0583 20.6665 22.3016Z" fill="#231F20"/>
<path d="M50.2215 18.5562C50.6109 15.9567 51.6531 13.3513 52.4187 10.8487C53.2357 8.17741 54.0951 5.51849 54.8979 2.8432C55.1304 2.06781 53.9296 1.73874 53.6984 2.51012C52.9309 5.06849 52.1109 7.61148 51.3271 10.1652C50.5244 12.78 49.4294 15.5067 49.0224 18.2234C48.9037 19.0132 50.1021 19.3529 50.2215 18.5562Z" fill="#231F20"/>
<path d="M60.4619 22.2844C61.4096 19.7711 63.0399 17.3835 64.3442 15.049C65.6455 12.7194 66.9822 10.4096 68.2699 8.07244C68.6593 7.36554 67.5849 6.73379 67.1958 7.44003C65.8491 9.88381 64.4527 12.3005 63.0917 14.7366C61.7884 17.0695 60.2105 19.4387 59.2628 21.9513C58.9769 22.7077 60.18 23.0317 60.4619 22.2844Z" fill="#231F20"/>
<path d="M38.408 39.709C38.7175 40.9097 38.4949 42.415 38.474 43.6411C38.4528 44.8922 38.3967 46.143 38.3858 47.3941C38.3788 48.2022 39.6227 48.2016 39.6297 47.3941C39.6413 46.0277 39.7003 44.6613 39.7239 43.2953C39.7451 42.0502 39.9222 40.5973 39.6078 39.3756C39.4061 38.5945 38.2063 38.9266 38.408 39.709Z" fill="#231F20"/>
<path d="M27.7942 37.8462C27.3471 39.1622 26.2595 40.4497 25.5174 41.6083C24.7449 42.8153 23.9445 44.0053 23.1809 45.218C22.7501 45.9022 23.8268 46.5302 24.255 45.8504C25.0773 44.5448 25.937 43.263 26.769 41.9637C27.5252 40.7828 28.5376 39.5233 28.994 38.1793C29.2544 37.4129 28.0523 37.0865 27.7942 37.8462Z" fill="#231F20"/>
<path d="M19.6266 34.0329C18.5668 35.3431 17.0416 36.4022 15.7712 37.4916C14.4374 38.6355 13.0841 39.7566 11.7563 40.9075C11.1473 41.4354 12.0313 42.3173 12.6356 41.7932C13.9634 40.6423 15.3158 39.5198 16.6505 38.3772C17.9213 37.2895 19.4465 36.2284 20.5056 34.9185C21.0081 34.2982 20.1334 33.4062 19.6266 34.0329Z" fill="#231F20"/>
<path d="M49.0225 38.3474C49.4789 39.6924 50.4926 40.9492 51.2476 42.1321C52.0775 43.4324 52.9396 44.7129 53.7615 46.0184C54.1898 46.6986 55.2668 46.0706 54.8356 45.386C54.072 44.1733 53.2733 42.9824 52.4991 41.7767C51.7564 40.6198 50.6688 39.3292 50.2223 38.0143C49.9642 37.2546 48.7621 37.5807 49.0225 38.3474Z" fill="#231F20"/>
<path d="M59.4224 35.087C60.4825 36.3972 62.0073 37.4559 63.2777 38.5454C64.6115 39.6892 65.9648 40.8104 67.2926 41.9613C67.897 42.4855 68.781 41.6035 68.172 41.0757C66.8445 39.9248 65.4918 38.8023 64.1571 37.6597C62.886 36.572 61.3611 35.5109 60.3014 34.2014C59.7949 33.5746 58.9202 34.4666 59.4224 35.087Z" fill="#231F20"/>
<path d="M67.095 28.5937C68.8782 26.6741 71.2021 25.1213 73.2404 23.4957C75.4164 21.7605 77.6195 20.0593 79.7859 18.3125C80.4121 17.8077 79.5258 16.927 78.9065 17.4268C76.8347 19.0969 74.7291 20.7252 72.647 22.3822C70.5145 24.079 68.0791 25.7016 66.2153 27.708C65.6683 28.297 66.546 29.1847 67.095 28.5937Z" fill="#231F20"/>
<path d="M39.5413 18.8305C39.6103 19.0567 39.6074 19.2863 39.6074 19.5336C39.6077 20.0722 40.4369 20.0722 40.4366 19.5336C40.4363 19.2248 40.4316 18.906 40.3411 18.608C40.1845 18.095 39.3841 18.3139 39.5413 18.8305Z" fill="#231F20"/>
<path d="M36.1923 19.5894C36.3386 19.7848 36.4205 20 36.5024 20.2272C36.5797 20.4408 36.7814 20.5828 37.0126 20.519C37.2172 20.4622 37.3798 20.2192 37.3022 20.005C37.1977 19.7167 37.0932 19.4149 36.9078 19.168C36.7721 18.9866 36.5528 18.893 36.3406 19.0183C36.1631 19.1229 36.0556 19.4072 36.1923 19.5894Z" fill="#231F20"/>
<path d="M33.3787 21.5265C33.5741 21.6545 33.727 21.8536 33.8763 22.0327C34.0219 22.2072 34.3131 22.1831 34.4627 22.0327C34.6329 21.8613 34.608 21.6164 34.4627 21.442C34.264 21.2031 34.0587 20.9765 33.7973 20.8051C33.6076 20.6808 33.3403 20.7657 33.2301 20.9551C33.1114 21.1586 33.1897 21.4025 33.3787 21.5265Z" fill="#231F20"/>
<path d="M31.3001 24.2691C31.5333 24.3233 31.7356 24.4442 31.9416 24.5635C32.4057 24.8329 32.8233 24.1108 32.3602 23.8421C32.0959 23.6887 31.8209 23.5333 31.521 23.4635C31.0003 23.3425 30.7794 24.1478 31.3001 24.2691Z" fill="#231F20"/>
<path d="M30.2823 27.5713C30.5188 27.5422 30.7493 27.5763 30.9819 27.6174C31.2044 27.6565 31.4277 27.5606 31.492 27.3257C31.5474 27.1222 31.4253 26.8512 31.2024 26.8118C30.9009 26.7586 30.5888 26.6981 30.2823 26.7359C30.0581 26.7636 29.8677 26.905 29.8677 27.1536C29.8677 27.3604 30.0571 27.599 30.2823 27.5713Z" fill="#231F20"/>
<path d="M30.5474 30.9921C30.7331 30.8962 31.0038 30.8531 31.2304 30.8123C31.4529 30.7723 31.5753 30.5026 31.5199 30.2984C31.4559 30.0639 31.232 29.967 31.0098 30.0067C30.7043 30.0619 30.4074 30.1273 30.1288 30.271C29.9278 30.3746 29.8707 30.6543 29.9799 30.8424C30.0989 31.0469 30.3461 31.096 30.5474 30.9921Z" fill="#231F20"/>
<path d="M32.213 34.1754C32.3755 33.999 32.5815 33.8833 32.7885 33.7627C33.2509 33.4931 32.8336 32.771 32.3699 33.0416C32.1062 33.1953 31.8358 33.3577 31.6265 33.585C31.2636 33.9793 31.8488 34.5714 32.213 34.1754Z" fill="#231F20"/>
<path d="M34.5402 36.7189C34.6337 36.4963 34.7796 36.3109 34.9326 36.1271C35.0775 35.9527 35.1031 35.7081 34.9326 35.5366C34.7833 35.3863 34.4914 35.3619 34.3461 35.5366C34.1507 35.7719 33.9441 36.0125 33.824 36.2975C33.7358 36.507 33.7597 36.7429 33.9729 36.8689C34.1491 36.9725 34.4519 36.9287 34.5402 36.7189Z" fill="#231F20"/>
<path d="M37.2668 37.7782C37.2784 37.5584 37.3739 37.3141 37.4522 37.0962C37.5291 36.8817 37.3676 36.6391 37.1626 36.5823C36.9317 36.5185 36.7294 36.6602 36.6524 36.874C36.5466 37.1687 36.4538 37.4628 36.4375 37.7782C36.4256 38.0058 36.6352 38.1959 36.8521 38.1959C37.0873 38.1959 37.2551 38.0054 37.2668 37.7782Z" fill="#231F20"/>
<path d="M40.6627 38.2154C40.5937 37.9892 40.5967 37.7597 40.5963 37.5124C40.5957 36.9737 39.7664 36.9737 39.7671 37.5124C39.7674 37.8211 39.7721 38.1402 39.863 38.4376C40.0198 38.9506 40.8206 38.7317 40.6627 38.2154Z" fill="#231F20"/>
<path d="M44.0115 37.4565C43.8648 37.261 43.7829 37.0458 43.7003 36.8189C43.6227 36.6054 43.4217 36.4631 43.1902 36.5272C42.9858 36.584 42.823 36.8273 42.9006 37.0411C43.0054 37.3292 43.1099 37.6309 43.295 37.8778C43.431 38.0593 43.6499 38.1532 43.8622 38.0275C44.0403 37.923 44.1481 37.6386 44.0115 37.4565Z" fill="#231F20"/>
<path d="M46.8257 35.5186C46.63 35.391 46.4771 35.1918 46.3275 35.0131C46.1819 34.839 45.8906 34.8624 45.741 35.0131C45.5712 35.1842 45.5954 35.4298 45.741 35.6038C45.9404 35.8421 46.1454 36.0693 46.4071 36.2404C46.5968 36.3644 46.8642 36.2802 46.9743 36.0904C47.0927 35.8869 47.0151 35.6423 46.8257 35.5186Z" fill="#231F20"/>
<path d="M48.59 32.9512C48.3564 32.897 48.1541 32.7764 47.9478 32.6578C47.4831 32.3898 47.0655 33.1116 47.5292 33.3789C47.7942 33.5316 48.0692 33.6873 48.3691 33.7568C48.8902 33.8771 49.1111 33.0718 48.59 32.9512Z" fill="#231F20"/>
<path d="M49.6081 29.649C49.3713 29.6785 49.1411 29.6444 48.9082 29.6036C48.6856 29.5648 48.4624 29.6601 48.398 29.8953C48.3426 30.0985 48.4647 30.3701 48.6876 30.4092C48.9895 30.462 49.3016 30.5228 49.6081 30.4844C49.8323 30.4564 50.0227 30.3157 50.0227 30.0667C50.0227 29.8602 49.833 29.621 49.6081 29.649Z" fill="#231F20"/>
<path d="M49.6562 26.4735C49.4701 26.5697 49.1997 26.6132 48.9729 26.6539C48.7503 26.6944 48.6276 26.9637 48.6833 27.1679C48.7473 27.4021 48.9712 27.4997 49.1934 27.4596C49.4989 27.4044 49.7961 27.3386 50.0748 27.1949C50.2758 27.091 50.3328 26.8117 50.2234 26.6235C50.1046 26.419 49.8572 26.3699 49.6562 26.4735Z" fill="#231F20"/>
<path d="M48.3387 23.29C48.1762 23.4664 47.9702 23.5824 47.7635 23.7033C47.3015 23.9737 47.7188 24.6958 48.1821 24.4244C48.4458 24.2701 48.7162 24.1077 48.9252 23.8804C49.2877 23.4865 48.7029 22.894 48.3387 23.29Z" fill="#231F20"/>
<path d="M46.0109 20.7467C45.9174 20.9696 45.7714 21.1551 45.6189 21.3392C45.4742 21.5136 45.4484 21.7582 45.6189 21.93C45.7678 22.0803 46.06 22.1047 46.2053 21.93C46.4007 21.6944 46.6073 21.4538 46.7274 21.1684C46.8153 20.9589 46.7921 20.723 46.5785 20.597C46.4027 20.4931 46.0995 20.5369 46.0109 20.7467Z" fill="#231F20"/>
<path d="M42.9361 19.2673C42.9252 19.4878 42.8296 19.7318 42.7514 19.95C42.6747 20.1645 42.8359 20.4071 43.0409 20.4639C43.2718 20.5277 43.4745 20.386 43.5511 20.1722C43.6566 19.8771 43.7494 19.5831 43.7654 19.2673C43.7766 19.0397 43.568 18.8496 43.3507 18.8496C43.1159 18.8496 42.9474 19.0401 42.9361 19.2673Z" fill="#231F20"/>
<path d="M38.5657 27.8919C39.6351 27.8919 39.6351 26.2212 38.5657 26.2212C37.4963 26.2212 37.4963 27.8919 38.5657 27.8919Z" fill="white"/>
</svg>
