<svg width="12" height="8" viewBox="0 0 12 8" fill="none" xmlns="http://www.w3.org/2000/svg">
<path d="M0.984007 4.625V4.628C0.967166 4.69151 0.93797 4.75109 0.89809 4.80331C0.85821 4.85553 0.808428 4.89938 0.751589 4.93235C0.694751 4.96532 0.631971 4.98676 0.566839 4.99546C0.501707 5.00415 0.435502 4.99991 0.372007 4.983C-0.058993 4.869 0.0170069 4.372 0.0170069 4.372L0.0350071 4.31C0.0350071 4.31 0.061007 4.226 0.082007 4.165C0.338628 3.44549 0.716406 2.77516 1.19901 2.183C2.09601 1.089 3.60501 0 6.00001 0C8.39501 0 9.90401 1.089 10.802 2.183C11.2846 2.77516 11.6624 3.44549 11.919 4.165C11.9405 4.22683 11.9605 4.28919 11.979 4.352L11.982 4.365V4.369L11.983 4.371C12.0147 4.49827 11.9952 4.6329 11.9285 4.74588C11.8619 4.85886 11.7536 4.94114 11.6269 4.97498C11.5001 5.00883 11.3652 4.99153 11.2511 4.92681C11.137 4.86209 11.053 4.75513 11.017 4.629L11.016 4.625L11.008 4.6L10.973 4.491C10.755 3.88352 10.4355 3.31748 10.028 2.817C9.28601 1.912 8.04501 1 6.00001 1C3.95501 1 2.71501 1.912 1.97201 2.817C1.56451 3.31748 1.24496 3.88352 1.02701 4.491L0.992007 4.6L0.984007 4.625ZM6.00001 3C5.33697 3 4.70108 3.26339 4.23224 3.73223C3.7634 4.20107 3.50001 4.83696 3.50001 5.5C3.50001 6.16304 3.7634 6.79893 4.23224 7.26777C4.70108 7.73661 5.33697 8 6.00001 8C6.66305 8 7.29893 7.73661 7.76777 7.26777C8.23662 6.79893 8.50001 6.16304 8.50001 5.5C8.50001 4.83696 8.23662 4.20107 7.76777 3.73223C7.29893 3.26339 6.66305 3 6.00001 3ZM4.50001 5.5C4.50001 5.10218 4.65804 4.72064 4.93935 4.43934C5.22065 4.15804 5.60218 4 6.00001 4C6.39783 4 6.77936 4.15804 7.06067 4.43934C7.34197 4.72064 7.50001 5.10218 7.50001 5.5C7.50001 5.89782 7.34197 6.27936 7.06067 6.56066C6.77936 6.84196 6.39783 7 6.00001 7C5.60218 7 5.22065 6.84196 4.93935 6.56066C4.65804 6.27936 4.50001 5.89782 4.50001 5.5Z" fill="black"/>
</svg>
