<svg width="12" height="5" viewBox="0 0 12 5" fill="none" xmlns="http://www.w3.org/2000/svg">
<path d="M0.973301 0.37486V0.37186C0.95644 0.308344 0.92721 0.248771 0.887284 0.196546C0.847357 0.144321 0.797517 0.100471 0.740612 0.0674996C0.683707 0.0345283 0.620854 0.0130839 0.555646 0.0043931C0.490438 -0.00429773 0.424155 -6.48499e-05 0.360587 0.0168495C-0.0709165 0.130853 0.00517214 0.627868 0.00517214 0.627868L0.0231933 0.689869C0.0231933 0.689869 0.0492236 0.773872 0.0702481 0.834874C0.327168 1.55441 0.705388 2.22476 1.18855 2.81693C2.0866 3.91097 3.59736 5 5.99516 5C8.39295 5 9.90371 3.91097 10.8028 2.81693C11.2859 2.22476 11.6641 1.55441 11.9211 0.834874C11.9426 0.773039 11.9626 0.710685 11.9811 0.647868L11.9841 0.634868V0.630867L11.9851 0.628867C12.0169 0.501597 11.9973 0.36696 11.9306 0.253976C11.8639 0.140992 11.7554 0.0587101 11.6286 0.0248652C11.5017 -0.0089798 11.3666 0.00832319 11.2524 0.0730443C11.1382 0.137766 11.054 0.244723 11.018 0.37086L11.017 0.37486L11.009 0.39986L10.974 0.508864C10.7557 1.11636 10.4358 1.68242 10.0279 2.18291C9.28499 3.08794 8.04254 3.99997 5.99516 3.99997C3.94777 3.99997 2.70632 3.08794 1.96245 2.18291C1.55448 1.68242 1.23456 1.11636 1.01635 0.508864L0.98131 0.39986L0.973301 0.37486Z" fill="#0C0C0C"/>
</svg>
