<svg width="24" height="24" viewBox="0 0 24 24" fill="none" xmlns="http://www.w3.org/2000/svg">
<path d="M11.6786 5.25017L13.4642 3.4645C13.9286 3.0002 14.4798 2.63189 15.0864 2.38061C15.693 2.12933 16.3432 2 16.9999 2C17.6565 2 18.3067 2.12933 18.9133 2.38061C19.52 2.63189 20.0712 3.0002 20.5355 3.4645C20.9998 3.92881 21.3681 4.48002 21.6194 5.08666C21.8707 5.69331 22 6.3435 22 7.00013C22 7.65675 21.8707 8.30695 21.6194 8.91359C21.3681 9.52024 20.9998 10.0714 20.5355 10.5358L16.9642 14.1071C16.4999 14.5714 15.9487 14.9398 15.342 15.1911C14.7354 15.4424 14.0852 15.5717 13.4285 15.5717C12.7719 15.5717 12.1217 15.4424 11.515 15.1911C10.9084 14.9398 10.3572 14.5714 9.89291 14.1071C9.70376 13.9039 9.60076 13.6352 9.60555 13.3576C9.61035 13.08 9.72257 12.8151 9.91862 12.6186C10.1152 12.4225 10.3801 12.3103 10.6577 12.3055C10.9353 12.3007 11.2039 12.4037 11.4072 12.5928C11.6723 12.8588 11.9874 13.0699 12.3342 13.2139C12.6811 13.3578 13.053 13.432 13.4285 13.432C13.8041 13.432 14.176 13.3578 14.5228 13.2139C14.8697 13.0699 15.1848 12.8588 15.4499 12.5928L19.0212 9.0215C19.5313 8.48016 19.8103 7.76143 19.7993 7.01776C19.7882 6.27409 19.4878 5.56399 18.9619 5.03807C18.436 4.51216 17.7259 4.21181 16.9822 4.20074C16.2386 4.18966 15.5198 4.46873 14.9785 4.97875L13.1928 6.76442C12.9896 6.95357 12.721 7.05657 12.4434 7.05178C12.1658 7.04698 11.9009 6.93476 11.7043 6.73871C11.5082 6.54213 11.396 6.27721 11.3912 5.99962C11.3864 5.72204 11.4894 5.4534 11.6786 5.25017ZM4.97875 19.0212C5.2439 19.2872 5.55894 19.4983 5.90581 19.6423C6.25268 19.7863 6.62456 19.8604 7.00013 19.8604C7.3757 19.8604 7.74757 19.7863 8.09444 19.6423C8.44131 19.4983 8.75635 19.2872 9.0215 19.0212L10.8072 17.2356C11.0104 17.0464 11.279 16.9434 11.5566 16.9482C11.8342 16.953 12.0991 17.0652 12.2957 17.2613C12.4918 17.4579 12.604 17.7228 12.6088 18.0004C12.6136 18.278 12.5106 18.5466 12.3214 18.7498L10.5358 20.5355C10.0714 20.9998 9.52024 21.3681 8.91359 21.6194C8.30695 21.8707 7.65675 22 7.00013 22C6.3435 22 5.69331 21.8707 5.08666 21.6194C4.48002 21.3681 3.92881 20.9998 3.4645 20.5355C3.0002 20.0712 2.63189 19.52 2.38061 18.9133C2.12933 18.3067 2 17.6565 2 16.9999C2 16.3432 2.12933 15.693 2.38061 15.0864C2.63189 14.4798 3.0002 13.9286 3.4645 13.4642L7.03584 9.89291C7.50013 9.42858 8.05133 9.06024 8.65798 8.80894C9.26462 8.55764 9.91483 8.4283 10.5715 8.4283C11.2281 8.4283 11.8783 8.55764 12.485 8.80894C13.0916 9.06024 13.6428 9.42858 14.1071 9.89291C14.2962 10.0961 14.3992 10.3648 14.3944 10.6424C14.3897 10.92 14.2774 11.1849 14.0814 11.3814C13.8848 11.5775 13.6199 11.6897 13.3423 11.6945C13.0647 11.6993 12.7961 11.5963 12.5928 11.4072C12.3277 11.1412 12.0126 10.9301 11.6658 10.7861C11.3189 10.6422 10.947 10.568 10.5715 10.568C10.1959 10.568 9.82402 10.6422 9.47715 10.7861C9.13028 10.9301 8.81524 11.1412 8.55009 11.4072L4.97875 14.9785C4.71277 15.2436 4.50173 15.5587 4.35774 15.9056C4.21374 16.2524 4.13962 16.6243 4.13962 16.9999C4.13962 17.3754 4.21374 17.7473 4.35774 18.0942C4.50173 18.4411 4.71277 18.7561 4.97875 19.0212Z" fill="currentColor"/>
</svg>
