<svg width="145" height="42" viewBox="0 0 145 42" fill="none" xmlns="http://www.w3.org/2000/svg">
    <path d="M56.0197 29.7628C55.7389 29.7628 55.4951 29.6679 55.2882 29.4782C55.0961 29.2884 55 29.0433 55 28.7428V12.2572C55 11.9567 55.0887 11.7116 55.266 11.5218C55.4433 11.3321 55.6724 11.2372 55.9532 11.2372H61.3176C62.2338 11.2372 63.054 11.4428 63.7781 11.8539C64.517 12.2651 65.1007 12.8265 65.5293 13.5381C65.9579 14.2339 66.1721 15.0483 66.1721 15.9813C66.1721 16.8194 65.9579 17.5626 65.5293 18.211C65.1155 18.8593 64.5687 19.3654 63.8889 19.7291C64.8643 19.9979 65.6549 20.5198 66.2608 21.2946C66.8667 22.0537 67.1696 23.0341 67.1696 24.236C67.1696 25.3271 66.9332 26.2838 66.4603 27.1061C66.0022 27.9284 65.3593 28.5768 64.5318 29.0512C63.719 29.5256 62.7806 29.7628 61.7166 29.7628H56.0197ZM56.9064 27.8414H61.7166C62.4111 27.8414 63.0244 27.6991 63.5564 27.4145C64.1032 27.114 64.5318 26.7029 64.8421 26.181C65.1525 25.6434 65.3076 24.995 65.3076 24.236C65.3076 23.5402 65.1525 22.9392 64.8421 22.4332C64.5318 21.9272 64.1032 21.5397 63.5564 21.2709C63.0244 21.0021 62.4111 20.8677 61.7166 20.8677H56.9064V27.8414ZM56.9064 18.9226H61.3176C62.1895 18.9226 62.9062 18.6696 63.4678 18.1635C64.0293 17.6575 64.3101 16.9301 64.3101 15.9813C64.3101 15.0483 64.0293 14.3446 63.4678 13.8702C62.9062 13.3958 62.1895 13.1586 61.3176 13.1586H56.9064V18.9226Z"
          fill="black"/>
    <path d="M72.6693 29.7628C72.4033 29.7628 72.1742 29.6679 71.9821 29.4782C71.8048 29.2726 71.7161 29.0275 71.7161 28.7428V12.2572C71.7161 11.9567 71.8048 11.7116 71.9821 11.5218C72.1742 11.3321 72.4033 11.2372 72.6693 11.2372C73.0535 11.2372 73.3343 11.4112 73.5116 11.759L80.8267 27.3433H80.0952L87.2551 11.759C87.4473 11.4112 87.728 11.2372 88.0975 11.2372C88.3635 11.2372 88.5852 11.3321 88.7625 11.5218C88.9398 11.7116 89.0285 11.9567 89.0285 12.2572V28.7428C89.0285 29.0275 88.9398 29.2726 88.7625 29.4782C88.5852 29.6679 88.3635 29.7628 88.0975 29.7628C87.8167 29.7628 87.5803 29.6679 87.3881 29.4782C87.2108 29.2726 87.1221 29.0275 87.1221 28.7428V14.9613L87.5211 14.9376L81.2036 28.7428C81.0262 29.0749 80.7528 29.2409 80.3834 29.2409C79.9844 29.2409 79.6888 29.0354 79.4967 28.6242L73.1791 15.0799L73.6225 14.9613V28.7428C73.6225 29.0275 73.5264 29.2726 73.3343 29.4782C73.157 29.6679 72.9353 29.7628 72.6693 29.7628Z"
          fill="black"/>
    <path d="M102.361 30C101.164 30 100.041 29.7549 98.9913 29.2647C97.9569 28.7744 97.0406 28.0945 96.2426 27.2247C95.4594 26.355 94.8461 25.3508 94.4028 24.2122C93.9742 23.0578 93.7599 21.8165 93.7599 20.4881C93.7599 19.1756 93.9742 17.9501 94.4028 16.8115C94.8461 15.6571 95.4594 14.6529 96.2426 13.799C97.0259 12.9293 97.9347 12.2493 98.9692 11.759C100.018 11.253 101.149 11 102.361 11C103.439 11 104.407 11.166 105.265 11.4981C106.122 11.8144 106.957 12.3362 107.769 13.0637C107.902 13.1744 107.984 13.3009 108.013 13.4432C108.058 13.5697 108.058 13.6962 108.013 13.8227C107.984 13.9492 107.932 14.0599 107.858 14.1548C107.829 14.3288 107.74 14.4711 107.592 14.5818C107.459 14.6767 107.297 14.7241 107.104 14.7241C106.912 14.7241 106.72 14.645 106.528 14.4869C105.967 13.9492 105.361 13.5539 104.71 13.3009C104.06 13.032 103.277 12.8976 102.361 12.8976C101.43 12.8976 100.55 13.1032 99.7228 13.5144C98.91 13.9097 98.1933 14.4553 97.5726 15.1511C96.952 15.8469 96.4643 16.6533 96.1096 17.5705C95.7697 18.4877 95.5998 19.4603 95.5998 20.4881C95.5998 21.5476 95.7697 22.536 96.1096 23.4532C96.4643 24.3704 96.952 25.1769 97.5726 25.8727C98.1933 26.5685 98.91 27.114 99.7228 27.5094C100.55 27.9047 101.43 28.1024 102.361 28.1024C103.144 28.1024 103.89 27.9601 104.6 27.6754C105.309 27.3908 105.989 26.9875 106.639 26.4657C106.846 26.2917 107.053 26.2206 107.26 26.2522C107.481 26.2838 107.666 26.3866 107.814 26.5605C107.976 26.7187 108.058 26.9401 108.058 27.2247C108.058 27.367 108.035 27.4935 107.991 27.6042C107.947 27.7149 107.88 27.8335 107.792 27.9601C107.023 28.6717 106.173 29.1935 105.242 29.5256C104.326 29.8419 103.366 30 102.361 30Z"
          fill="black"/>
    <path d="M113.743 29.7628C113.462 29.7628 113.233 29.6679 113.056 29.4782C112.879 29.2884 112.79 29.0433 112.79 28.7428V12.2572C112.79 11.9567 112.879 11.7116 113.056 11.5218C113.233 11.3321 113.462 11.2372 113.743 11.2372H117.844C118.923 11.2372 119.883 11.4823 120.726 11.9725C121.583 12.4628 122.248 13.1427 122.721 14.0125C123.208 14.8664 123.452 15.8627 123.452 17.0012C123.452 18.0766 123.208 19.0333 122.721 19.8714C122.248 20.7095 121.583 21.3658 120.726 21.8402C119.883 22.3146 118.923 22.5518 117.844 22.5518H114.696V28.7428C114.696 29.0433 114.608 29.2884 114.43 29.4782C114.253 29.6679 114.024 29.7628 113.743 29.7628ZM122.987 29.7628C122.795 29.7628 122.632 29.7233 122.499 29.6442C122.366 29.5493 122.255 29.4149 122.166 29.2409L117.977 22.1011L119.861 21.5793L123.74 28.1973C123.977 28.5926 124.014 28.9563 123.851 29.2884C123.703 29.6047 123.415 29.7628 122.987 29.7628ZM114.696 20.6067H117.844C118.568 20.6067 119.211 20.4565 119.772 20.1561C120.349 19.8398 120.8 19.4128 121.125 18.8752C121.45 18.3217 121.612 17.697 121.612 17.0012C121.612 16.2422 121.45 15.578 121.125 15.0087C120.8 14.4236 120.349 13.9729 119.772 13.6567C119.211 13.3246 118.568 13.1586 117.844 13.1586H114.696V20.6067Z"
          fill="black"/>
    <path d="M128.641 29.7628C128.375 29.7628 128.146 29.6679 127.954 29.4782C127.776 29.2726 127.688 29.0275 127.688 28.7428V12.2572C127.688 11.9567 127.776 11.7116 127.954 11.5218C128.146 11.3321 128.375 11.2372 128.641 11.2372C129.025 11.2372 129.306 11.4112 129.483 11.759L136.798 27.3433H136.067L143.227 11.759C143.419 11.4112 143.7 11.2372 144.069 11.2372C144.335 11.2372 144.557 11.3321 144.734 11.5218C144.911 11.7116 145 11.9567 145 12.2572V28.7428C145 29.0275 144.911 29.2726 144.734 29.4782C144.557 29.6679 144.335 29.7628 144.069 29.7628C143.788 29.7628 143.552 29.6679 143.36 29.4782C143.182 29.2726 143.094 29.0275 143.094 28.7428V14.9613L143.493 14.9376L137.175 28.7428C136.998 29.0749 136.724 29.2409 136.355 29.2409C135.956 29.2409 135.66 29.0354 135.468 28.6242L129.151 15.0799L129.594 14.9613V28.7428C129.594 29.0275 129.498 29.2726 129.306 29.4782C129.128 29.6679 128.907 29.7628 128.641 29.7628Z"
          fill="black"/>
    <path d="M23.791 39.9997C25.8643 39.7517 30.4634 39.5374 32.7112 33.8508C34.959 28.1641 29.2115 21.057 25.4787 17.1892C23.3626 14.9965 22.3927 12.6766 22.7303 9.80054C21.6332 10.2799 17.8422 12.4263 16.7514 15.5032C15.2045 19.8664 17.798 23.149 20.7534 26.6605C23.2992 29.6854 24.4564 33.702 22.4313 36.4293C19.9761 39.736 15.0155 40.3468 12.1226 35.6359C10.7648 33.4249 9.96244 27.7118 13.8584 23.586C14.3727 24.6108 15.2688 26.5179 16.7514 27.9002C18.2893 29.3341 19.4515 30.8755 19.5479 32.8094C19.6765 35.388 16.1397 35.2062 15.0156 33.702C12.181 29.9091 15.662 25.8588 18.7283 22.148C19.7609 20.8983 21.1555 19.6272 21.6212 19.1727C21.6212 19.8669 21.9165 21.4753 23.5499 23.586C25.4304 26.0158 26.6581 27.2395 27.1179 30.1316C27.758 34.157 25.3821 38.5782 23.791 39.9997Z"
          stroke="url(#paint0_linear_210_624)" stroke-width="2"/>
    <path d="M1 20.7499C1 9.84235 9.73045 1 20.5 1C31.2696 1 40 9.84235 40 20.7499C40 28.5045 35.5874 35.2152 29.1667 38.4469"
          stroke="url(#paint1_linear_210_624)" stroke-width="2" stroke-linecap="round"/>
    <defs>
        <linearGradient id="paint0_linear_210_624" x1="22.1109" y1="9.80054" x2="22.1109" y2="39.9997"
                        gradientUnits="userSpaceOnUse">
            <stop stop-color="#FE912A"/>
            <stop offset="1" stop-color="#FF5C00"/>
        </linearGradient>
        <linearGradient id="paint1_linear_210_624" x1="20.5" y1="1" x2="20.5" y2="40.4999"
                        gradientUnits="userSpaceOnUse">
            <stop stop-color="#FE912A"/>
            <stop offset="1" stop-color="#FF5E02"/>
        </linearGradient>
    </defs>
</svg>
