<svg width="154" height="41" viewBox="0 0 154 41" fill="none" xmlns="http://www.w3.org/2000/svg">
<path d="M23.2066 39.0003C25.2267 38.7587 29.7079 38.5498 31.8981 33.0089C34.0882 27.4681 28.4881 20.5432 24.851 16.7744C22.7892 14.6379 21.8442 12.3776 22.1731 9.5752C21.1042 10.0423 17.4104 12.1336 16.3475 15.1317C14.8403 19.3831 17.3672 22.5815 20.2468 26.003C22.7274 28.9503 23.8549 32.864 21.8818 35.5214C19.4895 38.7433 14.6561 39.3385 11.8374 34.7484C10.5144 32.594 9.73263 27.0273 13.5287 23.0073C14.0298 24.0059 14.9029 25.8641 16.3475 27.2109C17.846 28.6081 18.9784 30.1099 19.0723 31.9943C19.1976 34.5068 15.7515 34.3296 14.6562 32.864C11.8943 29.1683 15.286 25.2219 18.2737 21.6061C19.2798 20.3885 20.6387 19.15 21.0925 18.7071C21.0925 19.3835 21.3801 20.9508 22.9717 23.0073C24.8039 25.3749 26.0002 26.5672 26.4482 29.3852C27.0718 33.3073 24.7569 37.6152 23.2066 39.0003Z" stroke="url(#paint0_linear_1665_470)" stroke-width="2"/>
<path d="M1 20.2437C1 9.61569 9.50659 1 20 1C30.4934 1 39 9.61569 39 20.2437C39 27.7995 34.7006 34.3382 28.4444 37.4871" stroke="url(#paint1_linear_1665_470)" stroke-width="2" stroke-linecap="round"/>
<path d="M106.726 30.5C105.303 30.5 103.968 30.2291 102.72 29.6873C101.49 29.1454 100.401 28.3939 99.4519 27.4326C98.5207 26.4713 97.7915 25.3614 97.2643 24.103C96.7548 22.8271 96.5 21.4551 96.5 19.9869C96.5 18.5362 96.7548 17.1816 97.2643 15.9232C97.7915 14.6473 98.5207 13.5375 99.4519 12.5936C100.383 11.6323 101.464 10.8808 102.694 10.3389C103.941 9.77965 105.286 9.5 106.726 9.5C108.009 9.5 109.16 9.68352 110.179 10.0506C111.198 10.4001 112.191 10.9769 113.157 11.7809C113.316 11.9032 113.412 12.0431 113.447 12.2004C113.5 12.3402 113.469 12.4575 113.447 12.6198C113.427 12.7668 113.412 12.852 113.35 12.9869C113.249 13.2075 113.122 13.3365 112.947 13.4588C112.788 13.5637 112.595 13.6161 112.367 13.6161C112.138 13.6161 111.91 13.5287 111.681 13.3539C111.014 12.7597 110.293 12.3227 109.52 12.0431C108.747 11.7459 107.816 11.5974 106.726 11.5974C105.619 11.5974 104.574 11.8246 103.59 12.279C102.624 12.716 101.771 13.319 101.033 14.088C100.295 14.8571 99.7155 15.7484 99.2938 16.7622C98.8897 17.7759 98.6876 18.8508 98.6876 19.9869C98.6876 21.1579 98.8897 22.2503 99.2938 23.264C99.7155 24.2778 100.295 25.1692 101.033 25.9382C101.771 26.7072 102.624 27.3102 103.59 27.7472C104.574 28.1841 105.619 28.4026 106.726 28.4026C107.658 28.4026 108.545 28.2453 109.388 27.9307C110.232 27.6161 111.04 27.1704 111.813 26.5936C112.059 26.4014 112.305 26.3227 112.551 26.3577C112.815 26.3926 113.034 26.5062 113.21 26.6985C113.403 26.8733 113.5 27.118 113.5 27.4326C113.5 27.5899 113.474 27.7297 113.421 27.8521C113.368 27.9744 113.289 28.1055 113.184 28.2453C112.27 29.0318 111.26 29.6086 110.153 29.9757C109.063 30.3252 107.921 30.5 106.726 30.5Z" fill="black"/>
<path d="M73.6323 30.5C73.3368 30.5 73.0823 30.4001 72.8688 30.2004C72.6718 29.984 72.5732 29.726 72.5732 29.4263V10.8233C72.5732 10.5071 72.6718 10.2491 72.8688 10.0493C73.0823 9.84956 73.3368 9.74969 73.6323 9.74969C74.0592 9.74969 74.3712 9.93279 74.5683 10.299L82.6961 27.9532H81.8834L89.8388 10.299C90.0523 9.93279 90.3643 9.74969 90.7748 9.74969C91.0703 9.74969 91.3166 9.84956 91.5137 10.0493C91.7107 10.2491 91.8092 10.5071 91.8092 10.8233V29.4263C91.8092 29.726 91.7107 29.984 91.5137 30.2004C91.3166 30.4001 91.0703 30.5 90.7748 30.5C90.4628 30.5 90.2001 30.4001 89.9866 30.2004C89.7896 29.984 89.691 29.726 89.691 29.4263V13.6698L90.1344 13.6448L83.1149 29.4263C82.9178 29.7759 82.614 29.9507 82.2035 29.9507C81.7602 29.9507 81.4318 29.7343 81.2183 29.3015L74.1988 13.7946L74.6914 13.6698V29.4263C74.6914 29.726 74.5847 29.984 74.3712 30.2004C74.1742 30.4001 73.9279 30.5 73.6323 30.5Z" fill="black"/>
<path d="M119.27 30.5C118.958 30.5 118.703 30.4001 118.506 30.2004C118.309 30.0006 118.211 29.7426 118.211 29.4263V10.8233C118.211 10.5071 118.309 10.2491 118.506 10.0493C118.703 9.84956 118.958 9.74969 119.27 9.74969H123.826C125.025 9.74969 126.092 10.0077 127.028 10.5237C127.981 11.0397 128.72 11.7555 129.245 12.671C129.787 13.5699 130.058 14.6186 130.058 15.8171C130.058 16.949 129.787 17.9561 129.245 18.8383C128.72 19.7206 127.981 20.4114 127.028 20.9107C126.092 21.4101 125.025 21.6598 123.826 21.6598H120.329V29.4263C120.329 29.7426 120.23 30.0006 120.033 30.2004C119.836 30.4001 119.582 30.5 119.27 30.5ZM129.541 30.5C129.327 30.5 129.146 30.4584 128.999 30.3752C128.851 30.2753 128.728 30.1338 128.629 29.9507L123.974 21.1854L126.068 20.6361L130.378 28.8521C130.641 29.2682 130.682 29.6511 130.501 30.0006C130.337 30.3335 130.017 30.5 129.541 30.5ZM120.329 19.6124H123.826C124.631 19.6124 125.345 19.4542 125.969 19.138C126.61 18.805 127.11 18.3556 127.472 17.7896C127.833 17.207 128.013 16.5495 128.013 15.8171C128.013 15.0181 127.833 14.319 127.472 13.7197C127.11 13.1038 126.61 12.6294 125.969 12.2965C125.345 11.9469 124.631 11.7722 123.826 11.7722H120.329V19.6124Z" fill="black"/>
<path d="M135.823 30.5C135.527 30.5 135.273 30.4001 135.059 30.2004C134.862 29.984 134.764 29.726 134.764 29.4263V10.8233C134.764 10.5071 134.862 10.2491 135.059 10.0493C135.273 9.84956 135.527 9.74969 135.823 9.74969C136.25 9.74969 136.562 9.93279 136.759 10.299L144.887 27.9532H144.074L152.029 10.299C152.243 9.93279 152.555 9.74969 152.965 9.74969C153.261 9.74969 153.507 9.84956 153.704 10.0493C153.901 10.2491 154 10.5071 154 10.8233V29.4263C154 29.726 153.901 29.984 153.704 30.2004C153.507 30.4001 153.261 30.5 152.965 30.5C152.653 30.5 152.391 30.4001 152.177 30.2004C151.98 29.984 151.882 29.726 151.882 29.4263V13.6698L152.325 13.6448L145.305 29.4263C145.108 29.7759 144.805 29.9507 144.394 29.9507C143.951 29.9507 143.622 29.7343 143.409 29.3015L136.389 13.7946L136.882 13.6698V29.4263C136.882 29.726 136.775 29.984 136.562 30.2004C136.365 30.4001 136.118 30.5 135.823 30.5Z" fill="black"/>
<path d="M55.173 30.5C54.85 30.5 54.5695 30.3924 54.3315 30.1773C54.1105 29.9622 54 29.6844 54 29.3438V10.6562C54 10.3156 54.102 10.0378 54.306 9.82266C54.51 9.60755 54.7735 9.5 55.0965 9.5H61.2678C62.3218 9.5 63.2653 9.73303 64.0984 10.1991C64.9484 10.6652 65.6199 11.3015 66.1129 12.1082C66.6059 12.8969 66.8525 13.8201 66.8525 14.8777C66.8525 15.8278 66.6059 16.6703 66.1129 17.4052C65.6369 18.1402 65.0079 18.7138 64.2259 19.1261C65.3479 19.4309 66.2574 20.0224 66.9545 20.9008C67.6515 21.7612 68 22.8726 68 24.235C68 25.4718 67.728 26.5563 67.184 27.4885C66.657 28.4206 65.9174 29.1556 64.9654 29.6933C64.0304 30.2311 62.9508 30.5 61.7268 30.5H55.173ZM56.1931 28.322H61.7268C62.5258 28.322 63.2313 28.1607 63.8434 27.838C64.4724 27.4974 64.9654 27.0314 65.3224 26.4398C65.6794 25.8303 65.8579 25.0954 65.8579 24.235C65.8579 23.4462 65.6794 22.765 65.3224 22.1914C64.9654 21.6178 64.4724 21.1786 63.8434 20.8739C63.2313 20.5691 62.5258 20.4168 61.7268 20.4168H56.1931V28.322ZM56.1931 18.2119H61.2678C62.2708 18.2119 63.0953 17.9251 63.7413 17.3515C64.3874 16.7778 64.7104 15.9533 64.7104 14.8777C64.7104 13.8201 64.3874 13.0224 63.7413 12.4846C63.0953 11.9469 62.2708 11.678 61.2678 11.678H56.1931V18.2119Z" fill="black"/>
<defs>
<linearGradient id="paint0_linear_1665_470" x1="21.5696" y1="9.5752" x2="21.5696" y2="39.0003" gradientUnits="userSpaceOnUse">
<stop stop-color="#FE912A"/>
<stop offset="1" stop-color="#FF5C00"/>
</linearGradient>
<linearGradient id="paint1_linear_1665_470" x1="20" y1="1" x2="20" y2="39.4874" gradientUnits="userSpaceOnUse">
<stop stop-color="#FE912A"/>
<stop offset="1" stop-color="#FF5E02"/>
</linearGradient>
</defs>
</svg>
