<svg viewBox="0 0 40 40" fill="none" xmlns="http://www.w3.org/2000/svg">
    <path d="M14.105 20.3502C14.105 19.5902 13.577 19.1362 12.646 19.1362C12.266 19.1362 12.009 19.1732 11.874 19.2092V21.6502C12.034 21.6862 12.23 21.6992 12.499 21.6992C13.492 21.6992 14.105 21.1962 14.105 20.3502ZM19.871 19.1602C19.454 19.1602 19.184 19.1972 19.024 19.2342V24.6422C19.184 24.6792 19.441 24.6792 19.674 24.6792C21.366 24.6912 22.47 23.7592 22.47 21.7852C22.483 20.0682 21.477 19.1602 19.871 19.1602Z" fill="currentColor"/>
    <path d="M30.918 15.9832H30.24V12.7122C30.2394 12.6914 30.2374 12.6707 30.234 12.6502C30.2351 12.5187 30.1886 12.3912 30.103 12.2912L24.66 6.07523L24.656 6.07123C24.5869 5.99622 24.4988 5.94129 24.401 5.91223L24.371 5.90223C24.3295 5.89187 24.2868 5.8865 24.244 5.88623H10.867C10.256 5.88623 9.76 6.38323 9.76 6.99323V15.9832H9.082C8.208 15.9832 7.5 16.6912 7.5 17.5652V25.7932C7.5 26.6662 8.209 27.3752 9.082 27.3752H9.76V33.0082C9.76 33.6182 10.256 34.1152 10.867 34.1152H29.133C29.743 34.1152 30.24 33.6182 30.24 33.0082V27.3752H30.918C31.792 27.3752 32.5 26.6662 32.5 25.7932V17.5652C32.5 16.6912 31.791 15.9832 30.918 15.9832ZM10.867 6.99323H23.69V12.6572C23.69 12.9632 23.938 13.2102 24.244 13.2102H29.134V15.9832H10.867V6.99323ZM24.457 21.7232C24.457 23.3052 23.881 24.3972 23.082 25.0712C22.212 25.7942 20.888 26.1382 19.269 26.1382C18.3 26.1382 17.614 26.0762 17.147 26.0162V17.8972C17.834 17.7872 18.729 17.7262 19.674 17.7262C21.243 17.7262 22.261 18.0082 23.058 18.6092C23.917 19.2462 24.457 20.2642 24.457 21.7232ZM10.021 26.0532V17.8972C10.597 17.7992 11.407 17.7262 12.547 17.7262C13.7 17.7262 14.522 17.9472 15.073 18.3882C15.6 18.8052 15.955 19.4922 15.955 20.3012C15.955 21.1112 15.686 21.7972 15.195 22.2632C14.557 22.8642 13.613 23.1342 12.509 23.1342C12.264 23.1342 12.043 23.1222 11.872 23.0972V26.0532H10.021ZM29.133 32.7082H10.867V27.3752H29.133V32.7082ZM30.737 19.3202H27.56V21.2092H30.528V22.7302H27.56V26.0532H25.685V17.7872H30.737V19.3202Z" fill="currentColor"/>
</svg>
