<svg width="20" height="21" viewBox="0 0 20 21" fill="none" xmlns="http://www.w3.org/2000/svg">
    <path d="M19 19.0001L15.128 15.128M15.128 15.128C15.8965 14.3595 16.5061 13.4471 16.922 12.443C17.3379 11.439 17.5519 10.3628 17.5519 9.27597C17.5519 8.18915 17.3379 7.11298 16.922 6.10889C16.5061 5.10481 15.8965 4.19247 15.128 3.42398C14.3595 2.65548 13.4471 2.04588 12.443 1.62997C11.439 1.21406 10.3628 1 9.27597 1C8.18915 1 7.11298 1.21406 6.10889 1.62997C5.10481 2.04588 4.19247 2.65548 3.42398 3.42398C1.87193 4.97602 1 7.08105 1 9.27597C1 11.4709 1.87193 13.5759 3.42398 15.128C4.97602 16.68 7.08105 17.5519 9.27597 17.5519C11.4709 17.5519 13.5759 16.68 15.128 15.128Z" stroke="currentColor" stroke-linecap="round" stroke-linejoin="round"/>
</svg>
