<svg viewBox="0 0 40 40" fill="none" xmlns="http://www.w3.org/2000/svg">
    <path d="M31.4179 16.0156H30.7401V12.7711C30.7401 12.7509 30.7369 12.7305 30.7341 12.71C30.7331 12.5812 30.6917 12.4547 30.6028 12.3544L25.1601 6.18778C25.1584 6.18619 25.1568 6.18563 25.1557 6.18395C25.1233 6.14799 25.0855 6.11807 25.0454 6.09223C25.0336 6.08436 25.0217 6.07778 25.0093 6.07088C24.9747 6.05219 24.9378 6.03662 24.9001 6.02533C24.8898 6.02252 24.8805 6.01849 24.8703 6.01573C24.8292 6.00603 24.7865 6 24.7433 6H11.367C10.7562 6 10.26 6.49275 10.26 7.09806V16.0153H9.58212C8.7085 16.0153 8 16.7176 8 17.5846V25.7459C8 26.612 8.7085 27.3152 9.58212 27.3152H10.26V32.902C10.26 33.5073 10.7562 34 11.367 34H29.633C30.2433 34 30.74 33.5073 30.74 32.902V27.3153H31.4179C32.2914 27.3153 33 26.6124 33 25.7459V17.5849C33.0001 16.7177 32.2914 16.0156 31.4179 16.0156ZM11.367 7.09806H24.1898V12.7158C24.1898 13.0193 24.4378 13.2649 24.7433 13.2649H29.6331V16.0156H11.367V7.09806ZM16.8274 17.4924H18.9734L19.6974 18.9887C19.9423 19.4869 20.1266 19.8886 20.3228 20.351H20.3475C20.5431 19.8279 20.7028 19.4628 20.9113 18.9887L21.6109 17.4924H23.7449L21.4146 21.4942L23.8673 25.6912H21.7086L20.9608 24.2072C20.6541 23.6354 20.4577 23.2099 20.2246 22.7352H20.2C20.0283 23.2099 19.82 23.6354 19.5625 24.2072L18.8759 25.6912H16.7416L19.1334 21.5433L16.8274 17.4924ZM9.78755 19.0494V17.4924H16.14V19.0494H13.8835V25.6908H12.0076V19.0494H9.78755ZM29.6331 32.6044H11.367V27.3153H29.633L29.6331 32.6044ZM30.6746 19.0494H28.4179V25.6908H26.5417V19.0494H24.3217V17.4924H30.6747L30.6746 19.0494Z" fill="currentColor"/>
</svg>
