<svg width="40" height="40" viewBox="0 0 40 40" fill="none" xmlns="http://www.w3.org/2000/svg">
<path d="M7 9.37917C7 8.61806 7.61806 8 8.37917 8H30.6208C31.3819 8 32 8.61806 32 9.37917V31.6208C31.9996 31.9865 31.8542 32.3371 31.5956 32.5956C31.3371 32.8542 30.9865 32.9996 30.6208 33H8.37917C8.01339 33 7.66259 32.8547 7.40395 32.5961C7.1453 32.3374 7 31.9866 7 31.6208V9.37917ZM17.5861 15.5208C17.5025 15.4651 17.4054 15.433 17.305 15.4281C17.2046 15.4232 17.1048 15.4455 17.0162 15.4929C16.9275 15.5402 16.8534 15.6107 16.8016 15.6968C16.7498 15.7829 16.7224 15.8815 16.7222 15.9819V25.0181C16.7224 25.1185 16.7498 25.2171 16.8016 25.3032C16.8534 25.3893 16.9275 25.4598 17.0162 25.5071C17.1048 25.5545 17.2046 25.5768 17.305 25.5719C17.4054 25.567 17.5025 25.5349 17.5861 25.4792L24.3625 20.9625C24.4384 20.9116 24.5006 20.8427 24.5436 20.7621C24.5867 20.6814 24.6092 20.5914 24.6092 20.5C24.6092 20.4086 24.5867 20.3186 24.5436 20.2379C24.5006 20.1573 24.4384 20.0884 24.3625 20.0375L17.5861 15.5208Z" fill="currentColor"/>
</svg>
