<svg width="200" height="200" viewBox="0 0 200 200" fill="none" xmlns="http://www.w3.org/2000/svg">
<path d="M183.333 99.9998C183.333 53.9748 146.025 16.6665 100 16.6665C53.975 16.6665 16.6666 53.9748 16.6666 99.9998C16.6666 146.025 53.975 183.333 100 183.333" stroke="#8B103E" stroke-width="6.5" stroke-linecap="round" stroke-linejoin="round"/>
<path d="M108.333 17.083C108.333 17.083 133.333 49.9997 133.333 99.9997M91.6666 182.916C91.6666 182.916 66.6666 150 66.6666 99.9997C66.6666 49.9997 91.6666 17.083 91.6666 17.083M21.9166 129.166H100M21.9166 70.833H178.083" stroke="#8B103E" stroke-width="6.5" stroke-linecap="round" stroke-linejoin="round"/>
<path d="M182.325 149.308C186.442 151.842 186.183 158 181.95 158.483L160.558 160.908L150.967 180.175C149.067 184 143.192 182.125 142.217 177.392L131.758 126.425C130.933 122.425 134.533 119.908 138.008 122.05L182.325 149.308Z" stroke="#8B103E" stroke-width="6.5"/>
</svg>
