<svg width="200" height="200" viewBox="0 0 200 200" fill="none" xmlns="http://www.w3.org/2000/svg">
<path d="M160.583 44.4167C149.5 39.2501 137.5 35.5001 125 33.3334C124.89 33.3299 124.781 33.3505 124.681 33.3936C124.58 33.4368 124.49 33.5016 124.417 33.5834C122.917 36.3334 121.167 39.9167 120 42.6667C106.742 40.6667 93.2583 40.6667 80 42.6667C78.8333 39.8334 77.0833 36.3334 75.5 33.5834C75.4166 33.4167 75.1666 33.3334 74.9166 33.3334C62.4166 35.5001 50.5 39.2501 39.3333 44.4167C39.25 44.4167 39.1666 44.5001 39.0833 44.5834C16.4166 78.5001 10.1666 111.5 13.25 144.167C13.25 144.333 13.3333 144.5 13.5 144.583C28.5 155.583 42.9166 162.25 57.1666 166.667C57.4166 166.75 57.6666 166.667 57.75 166.5C61.0833 161.917 64.0833 157.083 66.6666 152C66.8333 151.667 66.6666 151.333 66.3333 151.25C61.5833 149.417 57.0833 147.25 52.6666 144.75C52.3333 144.583 52.3333 144.083 52.5833 143.833C53.5 143.167 54.4166 142.417 55.3333 141.75C55.5 141.583 55.75 141.583 55.9166 141.667C84.5833 154.75 115.5 154.75 143.833 141.667C144 141.583 144.25 141.583 144.417 141.75C145.333 142.5 146.25 143.167 147.167 143.917C147.5 144.167 147.5 144.667 147.083 144.833C142.75 147.417 138.167 149.5 133.417 151.333C133.083 151.417 133 151.833 133.083 152.083C135.75 157.167 138.75 162 142 166.583C142.25 166.667 142.5 166.75 142.75 166.667C157.083 162.25 171.5 155.583 186.5 144.583C186.667 144.5 186.75 144.333 186.75 144.167C190.417 106.417 180.667 73.6667 160.917 44.5834C160.833 44.5001 160.75 44.4167 160.583 44.4167ZM71 124.25C62.4166 124.25 55.25 116.333 55.25 106.583C55.25 96.8334 62.25 88.9167 71 88.9167C79.8333 88.9167 86.8333 96.9167 86.75 106.583C86.75 116.333 79.75 124.25 71 124.25ZM129.083 124.25C120.5 124.25 113.333 116.333 113.333 106.583C113.333 96.8334 120.333 88.9167 129.083 88.9167C137.917 88.9167 144.917 96.9167 144.833 106.583C144.833 116.333 137.917 124.25 129.083 124.25Z" fill="#7289DA"/>
</svg>
