<svg width="200" height="200" viewBox="0 0 200 200" fill="none" xmlns="http://www.w3.org/2000/svg">
<g clip-path="url(#clip0_1365_616)">
<path d="M153.125 0H46.875C20.9867 0 0 20.9867 0 46.875V153.125C0 179.013 20.9867 200 46.875 200H153.125C179.013 200 200 179.013 200 153.125V46.875C200 20.9867 179.013 0 153.125 0Z" fill="url(#paint0_radial_1365_616)"/>
<path d="M153.125 0H46.875C20.9867 0 0 20.9867 0 46.875V153.125C0 179.013 20.9867 200 46.875 200H153.125C179.013 200 200 179.013 200 153.125V46.875C200 20.9867 179.013 0 153.125 0Z" fill="url(#paint1_radial_1365_616)"/>
<path d="M100.007 21.875C78.7898 21.875 76.1266 21.968 67.7938 22.3469C59.4766 22.7281 53.7992 24.0445 48.832 25.9766C43.693 27.9719 39.3344 30.6414 34.9922 34.9852C30.6461 39.3281 27.9766 43.6867 25.975 48.8234C24.0375 53.7922 22.7195 59.4719 22.3453 67.7852C21.9727 76.1187 21.875 78.7828 21.875 100.001C21.875 121.219 21.9688 123.873 22.3469 132.206C22.7297 140.523 24.0461 146.201 25.9766 151.168C27.9734 156.307 30.643 160.666 34.9867 165.008C39.3281 169.354 43.6867 172.03 48.8219 174.025C53.793 175.957 59.4711 177.273 67.7867 177.655C76.1203 178.034 78.7812 178.127 99.9977 178.127C121.217 178.127 123.872 178.034 132.205 177.655C140.522 177.273 146.205 175.957 151.177 174.025C156.313 172.03 160.666 169.354 165.006 165.008C169.352 160.666 172.021 156.307 174.023 151.17C175.944 146.201 177.262 140.522 177.653 132.208C178.027 123.875 178.125 121.219 178.125 100.001C178.125 78.7828 178.027 76.1203 177.653 67.7867C177.262 59.4695 175.944 53.793 174.023 48.8258C172.021 43.6867 169.352 39.3281 165.006 34.9852C160.661 30.6398 156.315 27.9703 151.172 25.9773C146.191 24.0445 140.511 22.7273 132.194 22.3469C123.86 21.968 121.207 21.875 99.9828 21.875H100.007ZM92.9984 35.9539C95.0789 35.9508 97.4 35.9539 100.007 35.9539C120.867 35.9539 123.339 36.0289 131.577 36.4031C139.194 36.7516 143.328 38.0242 146.082 39.0938C149.728 40.5094 152.327 42.2023 155.06 44.9375C157.795 47.6719 159.487 50.2758 160.906 53.9219C161.976 56.6719 163.25 60.8063 163.597 68.4234C163.971 76.6594 164.052 79.1328 164.052 99.9828C164.052 120.833 163.971 123.307 163.597 131.542C163.248 139.159 161.976 143.294 160.906 146.045C159.491 149.691 157.795 152.287 155.06 155.02C152.326 157.754 149.73 159.446 146.082 160.863C143.331 161.937 139.194 163.206 131.577 163.555C123.341 163.929 120.867 164.01 100.007 164.01C79.1461 164.01 76.6734 163.929 68.4383 163.555C60.8211 163.203 56.6867 161.93 53.9305 160.861C50.2852 159.445 47.6805 157.752 44.9461 155.018C42.2117 152.284 40.5195 149.686 39.1 146.038C38.0305 143.287 36.7563 139.153 36.4094 131.536C36.0352 123.3 35.9602 120.827 35.9602 99.9633C35.9602 79.1008 36.0352 76.6398 36.4094 68.4039C36.7578 60.7867 38.0305 56.6523 39.1 53.8984C40.5164 50.2523 42.2117 47.6484 44.9469 44.9141C47.6813 42.1797 50.2852 40.4867 53.9312 39.068C56.6852 37.9937 60.8211 36.7242 68.4383 36.3742C75.6453 36.0484 78.4383 35.9508 92.9984 35.9344V35.9539ZM141.71 48.9258C136.534 48.9258 132.335 53.1211 132.335 58.2977C132.335 63.4734 136.534 67.6727 141.71 67.6727C146.886 67.6727 151.085 63.4734 151.085 58.2977C151.085 53.1219 146.886 48.9227 141.71 48.9227V48.9258ZM100.007 59.8797C77.8508 59.8797 59.8867 77.8438 59.8867 100.001C59.8867 122.158 77.8508 140.113 100.007 140.113C122.164 140.113 140.122 122.158 140.122 100.001C140.122 77.8445 122.163 59.8797 100.005 59.8797H100.007ZM100.007 73.9586C114.389 73.9586 126.049 85.6172 126.049 100.001C126.049 114.383 114.389 126.043 100.007 126.043C85.6242 126.043 73.9656 114.383 73.9656 100.001C73.9656 85.6172 85.6242 73.9586 100.007 73.9586Z" fill="white"/>
</g>
<defs>
<radialGradient id="paint0_radial_1365_616" cx="0" cy="0" r="1" gradientUnits="userSpaceOnUse" gradientTransform="translate(53.125 215.404) rotate(-90) scale(198.215 184.355)">
<stop stop-color="#FFDD55"/>
<stop offset="0.1" stop-color="#FFDD55"/>
<stop offset="0.5" stop-color="#FF543E"/>
<stop offset="1" stop-color="#C837AB"/>
</radialGradient>
<radialGradient id="paint1_radial_1365_616" cx="0" cy="0" r="1" gradientUnits="userSpaceOnUse" gradientTransform="translate(-33.5008 14.407) rotate(78.681) scale(88.6031 365.225)">
<stop stop-color="#3771C8"/>
<stop offset="0.128" stop-color="#3771C8"/>
<stop offset="1" stop-color="#6600FF" stop-opacity="0"/>
</radialGradient>
<clipPath id="clip0_1365_616">
<rect width="200" height="200" fill="white"/>
</clipPath>
</defs>
</svg>
