<svg width="200" height="200" viewBox="0 0 200 200" fill="none" xmlns="http://www.w3.org/2000/svg">
<path d="M100 16.6665C54 16.6665 16.6667 53.9998 16.6667 99.9998C16.6667 146 54 183.333 100 183.333C146 183.333 183.333 146 183.333 99.9998C183.333 53.9998 146 16.6665 100 16.6665ZM148.333 111.083C148.5 112.25 148.583 113.5 148.583 114.75C148.583 133.417 126.833 148.583 100 148.583C73.1667 148.583 51.4167 133.417 51.4167 114.75C51.4167 113.5 51.5 112.25 51.6667 111.083C47.4167 109.167 44.5 104.917 44.5 99.9998C44.4877 97.6102 45.1817 95.2702 46.495 93.2738C47.8082 91.2773 49.6821 89.7134 51.8813 88.7786C54.0805 87.8437 56.5069 87.5795 58.8558 88.0192C61.2047 88.4588 63.3712 89.5828 65.0834 91.2498C73.5 85.1665 85.1667 81.3332 98.0834 80.9165L104.25 51.8332C104.333 51.2498 104.667 50.7498 105.167 50.4998C105.667 50.1665 106.25 50.0832 106.833 50.1665L127 54.4998C127.684 53.113 128.727 51.9344 130.02 51.0863C131.313 50.2382 132.809 49.7515 134.353 49.6767C135.898 49.6019 137.434 49.9416 138.803 50.6608C140.172 51.3799 141.324 52.4522 142.139 53.7664C142.953 55.0806 143.402 56.5889 143.437 58.1348C143.473 59.6808 143.094 61.208 142.34 62.5581C141.586 63.9083 140.485 65.0321 139.15 65.8132C137.816 66.5942 136.296 67.0039 134.75 66.9998C130.083 66.9998 126.333 63.3332 126.083 58.7498L108 54.9165L102.5 80.9165C115.25 81.3332 126.667 85.2498 135 91.2498C136.278 90.03 137.806 89.1039 139.479 88.5365C141.152 87.9691 142.928 87.774 144.684 87.965C146.44 88.1559 148.133 88.7282 149.645 89.6418C151.157 90.5554 152.451 91.7883 153.436 93.2542C154.422 94.7201 155.075 96.3837 155.35 98.1284C155.626 99.8732 155.517 101.657 155.031 103.355C154.545 105.053 153.693 106.625 152.537 107.96C151.38 109.295 149.945 110.361 148.333 111.083Z" fill="#FF5700"/>
<path d="M148.333 111.083C148.5 112.25 148.583 113.5 148.583 114.75C148.583 133.416 126.833 148.583 100 148.583C73.1667 148.583 51.4167 133.416 51.4167 114.75C51.4167 113.5 51.5 112.25 51.6667 111.083C47.4167 109.166 44.5 104.916 44.5 99.9998C44.4877 97.6102 45.1817 95.2702 46.495 93.2737C47.8082 91.2773 49.6821 89.7134 51.8813 88.7785C54.0805 87.8436 56.507 87.5794 58.8558 88.0191C61.2047 88.4588 63.3712 89.5828 65.0834 91.2498C73.5 85.1665 85.1667 81.3331 98.0834 80.9165L104.25 51.8331C104.333 51.2498 104.667 50.7498 105.167 50.4998C105.667 50.1665 106.25 50.0831 106.833 50.1665L127 54.4998C127.684 53.113 128.727 51.9344 130.02 51.0863C131.313 50.2382 132.809 49.7515 134.353 49.6767C135.898 49.6018 137.434 49.9416 138.803 50.6607C140.172 51.3798 141.324 52.4521 142.139 53.7664C142.953 55.0806 143.402 56.5889 143.437 58.1348C143.473 59.6807 143.094 61.208 142.34 62.5581C141.586 63.9082 140.485 65.0321 139.15 65.8131C137.816 66.5941 136.296 67.0039 134.75 66.9998C130.083 66.9998 126.333 63.3331 126.083 58.7498L108 54.9165L102.5 80.9165C115.25 81.3331 126.667 85.2498 135 91.2498C136.278 90.0299 137.806 89.1039 139.479 88.5365C141.152 87.9691 142.928 87.774 144.684 87.9649C146.44 88.1558 148.133 88.7281 149.645 89.6417C151.157 90.5554 152.451 91.7883 153.436 93.2542C154.422 94.7201 155.075 96.3836 155.35 98.1284C155.626 99.8732 155.517 101.657 155.031 103.355C154.545 105.053 153.693 106.625 152.537 107.96C151.38 109.295 149.945 110.361 148.333 111.083Z" fill="white"/>
<path d="M89.5833 108.667C89.5833 103.917 85.6667 100 80.9167 100C76.1667 100 72.25 103.917 72.25 108.667C72.25 110.965 73.1631 113.17 74.7884 114.795C76.4137 116.42 78.6181 117.333 80.9167 117.333C83.2152 117.333 85.4196 116.42 87.0449 114.795C88.6702 113.17 89.5833 110.965 89.5833 108.667ZM117.417 128.417C113.667 132.167 105.667 133.5 100 133.5C94.3333 133.5 86.3333 132.167 82.5833 128.417C82.3806 128.2 82.1355 128.027 81.8631 127.908C81.5907 127.79 81.297 127.729 81 127.729C80.7031 127.729 80.4093 127.79 80.1369 127.908C79.8645 128.027 79.6194 128.2 79.4167 128.417C79.1997 128.619 79.0266 128.865 78.9084 129.137C78.7901 129.409 78.729 129.703 78.729 130C78.729 130.297 78.7901 130.591 78.9084 130.863C79.0266 131.135 79.1997 131.381 79.4167 131.583C85.3333 137.5 96.6667 138 100 138C103.333 138 114.667 137.5 120.583 131.583C120.8 131.381 120.973 131.135 121.092 130.863C121.21 130.591 121.271 130.297 121.271 130C121.271 129.703 121.21 129.409 121.092 129.137C120.973 128.865 120.8 128.619 120.583 128.417C119.75 127.583 118.333 127.583 117.417 128.417ZM119.083 100C114.333 100 110.417 103.917 110.417 108.667C110.417 113.417 114.333 117.333 119.083 117.333C123.833 117.333 127.75 113.417 127.75 108.667C127.75 103.917 123.917 100 119.083 100Z" fill="#FF5700"/>
</svg>
