<svg width="200" height="200" viewBox="0 0 200 200" fill="none" xmlns="http://www.w3.org/2000/svg">
<g clip-path="url(#clip0_1367_630)">
<path d="M166.536 132.812C166.536 130.903 165.582 129.731 163.672 129.297C157.856 127.995 152.734 125.434 148.307 121.615C143.88 117.795 140.408 113.108 137.891 107.552C137.283 105.903 136.979 104.818 136.979 104.297C136.979 102.995 137.826 101.866 139.518 100.911C141.211 99.9566 143.077 99.2188 145.117 98.6979C147.157 98.1771 149.023 97.2873 150.716 96.0286C152.409 94.77 153.255 93.1858 153.255 91.276C153.255 89.6267 152.452 88.2595 150.846 87.1745C149.24 86.0894 147.569 85.5469 145.833 85.5469C144.792 85.5469 143.403 85.8941 141.667 86.5885C139.931 87.283 138.585 87.6302 137.63 87.6302C137.283 87.6302 136.762 87.5434 136.068 87.3698C136.502 79.1233 136.719 74.1753 136.719 72.526C136.719 65.6684 135.981 60.7205 134.505 57.6823C131.38 50.9115 126.91 45.638 121.094 41.862C115.278 38.0859 108.681 36.1979 101.302 36.1979C84.0278 36.1979 72.092 43.3594 65.4948 57.6823C64.0191 60.7205 63.2812 65.6684 63.2812 72.526C63.2812 74.1753 63.4983 79.1233 63.9323 87.3698C63.5851 87.5434 62.9774 87.6302 62.1094 87.6302C61.0677 87.6302 59.6788 87.3047 57.9427 86.6536C56.2066 86.0026 54.9045 85.6771 54.0365 85.6771C52.2135 85.6771 50.5425 86.1979 49.0234 87.2396C47.5043 88.2812 46.7448 89.6701 46.7448 91.4062C46.7448 93.2292 47.5911 94.77 49.2839 96.0286C50.9766 97.2873 52.8429 98.1771 54.8828 98.6979C56.9227 99.2188 58.7891 99.9566 60.4818 100.911C62.1745 101.866 63.0208 102.995 63.0208 104.297C63.0208 104.818 62.717 105.903 62.1094 107.552C56.5538 119.531 47.9601 126.78 36.3281 129.297C34.4184 129.731 33.4635 130.903 33.4635 132.812C33.4635 136.806 39.4097 139.757 51.3021 141.667C51.4757 142.101 51.7361 143.229 52.0833 145.052C52.4306 146.875 52.9297 148.199 53.5807 149.023C54.2318 149.848 55.2517 150.26 56.6406 150.26C57.6823 150.26 59.3099 150.065 61.5234 149.674C63.737 149.284 65.4514 149.089 66.6667 149.089C69.7049 149.089 72.6128 149.74 75.3906 151.042C78.1684 152.344 80.5121 153.754 82.4219 155.273C84.3316 156.793 86.8273 158.203 89.9089 159.505C92.9904 160.807 96.3108 161.458 99.8698 161.458C103.602 161.458 107.031 160.807 110.156 159.505C113.281 158.203 115.777 156.793 117.643 155.273C119.51 153.754 121.832 152.344 124.609 151.042C127.387 149.74 130.295 149.089 133.333 149.089C134.549 149.089 136.263 149.262 138.477 149.609C140.69 149.957 142.361 150.13 143.49 150.13C144.878 150.13 145.877 149.696 146.484 148.828C147.092 147.96 147.569 146.658 147.917 144.922C148.264 143.186 148.524 142.101 148.698 141.667C160.59 139.757 166.536 136.806 166.536 132.812ZM200 100C200 118.142 195.53 134.874 186.589 150.195C177.648 165.516 165.516 177.648 150.195 186.589C134.874 195.53 118.142 200 100 200C81.8576 200 65.1259 195.53 49.8047 186.589C34.4835 177.648 22.3524 165.516 13.4115 150.195C4.47049 134.874 0 118.142 0 100C0 81.8576 4.47049 65.1259 13.4115 49.8047C22.3524 34.4835 34.4835 22.3524 49.8047 13.4115C65.1259 4.47049 81.8576 0 100 0C118.142 0 134.874 4.47049 150.195 13.4115C165.516 22.3524 177.648 34.4835 186.589 49.8047C195.53 65.1259 200 81.8576 200 100Z" fill="#FFFC00"/>
<path d="M136.952 107.898L136.965 107.932L136.98 107.965C139.554 113.646 143.112 118.453 147.654 122.372C152.208 126.3 157.479 128.935 163.452 130.272C164.253 130.455 164.746 130.766 165.045 131.133C165.342 131.498 165.536 132.026 165.536 132.812C165.536 134.219 164.506 135.699 161.632 137.125C158.795 138.533 154.453 139.729 148.539 140.679L147.98 140.769L147.769 141.295C147.554 141.833 147.277 143.02 146.936 144.726C146.6 146.405 146.158 147.551 145.665 148.255C145.301 148.775 144.664 149.13 143.49 149.13C142.442 149.13 140.833 148.967 138.632 148.621C136.402 148.272 134.627 148.088 133.333 148.088C130.147 148.088 127.094 148.772 124.185 150.136C121.352 151.464 118.956 152.915 117.012 154.498C115.244 155.937 112.841 157.303 109.772 158.582C106.78 159.828 103.484 160.458 99.8698 160.458C96.4358 160.458 93.2488 159.831 90.2981 158.584C87.2716 157.305 84.8622 155.937 83.0444 154.491C81.0604 152.913 78.6463 151.463 75.8151 150.136C72.9058 148.772 69.8531 148.088 66.6667 148.088C65.3634 148.088 63.5811 148.296 61.3497 148.69C59.1435 149.079 57.589 149.26 56.6406 149.26C55.4516 149.26 54.7697 148.916 54.3656 148.404C53.8638 147.768 53.4026 146.634 53.0657 144.865C52.7252 143.077 52.4481 141.839 52.2306 141.295L52.0201 140.769L51.4607 140.679C45.547 139.729 41.2053 138.533 38.3678 137.125C35.4942 135.699 34.4636 134.219 34.4636 132.812C34.4636 132.026 34.6577 131.498 34.9549 131.133C35.2539 130.766 35.746 130.455 36.5454 130.273C48.5174 127.68 57.3467 120.198 63.0166 107.973L63.0337 107.936L63.0477 107.898C63.3563 107.06 63.594 106.349 63.756 105.771C63.9108 105.218 64.0209 104.704 64.0209 104.297C64.0209 102.474 62.8107 101.077 60.9731 100.04C59.1977 99.0388 57.2484 98.2696 55.1302 97.7288C53.2167 97.2403 51.469 96.4072 49.8806 95.226C48.3962 94.1222 47.7448 92.8602 47.7448 91.4061C47.7448 90.0228 48.3222 88.9328 49.589 88.0641C50.9434 87.1354 52.4177 86.6769 54.0365 86.6769C54.7119 86.6769 55.8696 86.944 57.5916 87.5898C59.3665 88.2554 60.8886 88.63 62.1094 88.63C62.9862 88.63 63.8044 88.5516 64.3795 88.2641L64.9654 87.9711L64.9309 87.3171C64.4962 79.0569 64.2813 74.1421 64.2813 72.5259C64.2813 65.6948 65.0235 60.9414 66.3943 58.119L66.3988 58.1098L66.4031 58.1005C69.6292 51.0965 74.1359 45.8902 79.909 42.4263C85.6881 38.9589 92.8028 37.1978 101.302 37.1978C108.5 37.1978 114.906 39.0366 120.549 42.7005C126.195 46.366 130.545 51.4883 133.597 58.1012L133.601 58.1102L133.606 58.119C134.977 60.9414 135.719 65.6948 135.719 72.5259C135.719 74.1421 135.504 79.0569 135.069 87.3171L135.026 88.1399L135.825 88.3398C136.534 88.5169 137.154 88.63 137.63 88.63C138.783 88.63 140.275 88.2221 142.038 87.5169C143.735 86.8382 144.983 86.5467 145.833 86.5467C147.347 86.5467 148.826 87.0161 150.287 88.0029C151.673 88.9396 152.255 90.0206 152.255 91.2759C152.255 92.8331 151.589 94.1332 150.119 95.226C148.531 96.4072 146.783 97.2403 144.87 97.7288C142.752 98.2696 140.802 99.0388 139.027 100.04C137.189 101.077 135.979 102.474 135.979 104.297C135.979 104.704 136.089 105.218 136.244 105.771C136.406 106.349 136.644 107.06 136.952 107.898Z" fill="white" stroke="black" stroke-width="2"/>
</g>
<defs>
<clipPath id="clip0_1367_630">
<rect width="200" height="200" fill="white"/>
</clipPath>
</defs>
</svg>
