<svg width="200" height="200" viewBox="0 0 200 200" fill="none" xmlns="http://www.w3.org/2000/svg">
<g clip-path="url(#clip0_1365_625)">
<path d="M100 0C73.4844 0 48.0312 10.5422 29.2969 29.2891C10.5433 48.0435 0.00536638 73.4779 0 100C0 126.511 10.5469 151.964 29.2969 170.711C48.0312 189.458 73.4844 200 100 200C126.516 200 151.969 189.458 170.703 170.711C189.453 151.964 200 126.511 200 100C200 73.4891 189.453 48.0359 170.703 29.2891C151.969 10.5422 126.516 0 100 0Z" fill="url(#paint0_linear_1365_625)"/>
<path d="M45.2656 98.9439C74.4219 86.2439 93.8594 77.8709 103.578 73.8251C131.359 62.2735 137.125 60.2673 140.891 60.1993C141.719 60.186 143.562 60.3907 144.766 61.3634C145.766 62.1837 146.047 63.2931 146.187 64.072C146.312 64.8501 146.484 66.6235 146.344 68.0079C144.844 83.8204 138.328 122.192 135.016 139.903C133.625 147.397 130.859 149.909 128.188 150.155C122.375 150.689 117.969 146.317 112.344 142.631C103.547 136.861 98.5781 133.27 90.0312 127.641C80.1562 121.134 86.5625 117.558 92.1875 111.714C93.6562 110.184 119.25 86.911 119.734 84.8001C119.797 84.536 119.859 83.5517 119.266 83.0329C118.688 82.5126 117.828 82.6907 117.203 82.8314C116.313 83.0314 102.266 92.3251 75.0156 110.711C71.0312 113.452 67.4219 114.788 64.1719 114.717C60.6094 114.641 53.7344 112.699 48.625 111.039C42.375 109.003 37.3906 107.927 37.8281 104.469C38.0469 102.669 40.5313 100.827 45.2656 98.9439Z" fill="white"/>
</g>
<defs>
<linearGradient id="paint0_linear_1365_625" x1="10000" y1="0" x2="10000" y2="20000" gradientUnits="userSpaceOnUse">
<stop stop-color="#2AABEE"/>
<stop offset="1" stop-color="#229ED9"/>
</linearGradient>
<clipPath id="clip0_1365_625">
<rect width="200" height="200" fill="white"/>
</clipPath>
</defs>
</svg>
