<svg width="200" height="200" viewBox="0 0 200 200" fill="none" xmlns="http://www.w3.org/2000/svg">
<g clip-path="url(#clip0_1365_621)">
<path d="M148.219 72.0145C162.811 81.2179 180.688 86.6331 199.995 86.6331V53.8538C196.34 53.855 192.696 53.5185 189.121 52.8496V78.6517C169.816 78.6517 151.941 73.2372 137.346 64.0345V130.928C137.346 164.392 106.599 191.518 68.6742 191.518C54.5234 191.518 41.3703 187.743 30.4445 181.27C42.9148 192.52 60.3055 199.499 79.5445 199.499C117.473 199.499 148.22 172.373 148.22 138.908V72.0145H148.219ZM161.633 38.9441C154.175 31.7558 149.278 22.4662 148.219 12.1958V7.97998H137.915C140.509 21.0331 149.356 32.1848 161.633 38.9441ZM54.432 155.591C50.2651 150.772 48.0129 144.875 48.0234 138.812C48.0234 123.507 62.0867 111.097 79.4375 111.097C82.6705 111.096 85.8845 111.534 88.9664 112.396V78.8834C85.3648 78.4483 81.7305 78.2627 78.0977 78.331V104.415C75.0142 103.553 71.7986 103.115 68.5641 103.117C51.2141 103.117 37.1516 115.525 37.1516 130.832C37.1516 141.656 44.1805 151.026 54.432 155.591Z" fill="#FF004F"/>
<path d="M137.346 64.0338C151.942 73.2365 169.815 78.651 189.121 78.651V52.8489C178.345 50.8234 168.805 45.8552 161.632 38.9441C149.355 32.1841 140.509 21.0324 137.915 7.97998H110.85V138.906C110.788 154.17 96.7492 166.528 79.4359 166.528C69.2344 166.528 60.1703 162.238 54.4305 155.59C44.1805 151.026 37.1508 141.655 37.1508 130.833C37.1508 115.528 51.2133 103.118 68.5633 103.118C71.8875 103.118 75.0914 103.574 78.0969 104.416V78.3317C40.8375 79.011 10.8727 105.872 10.8727 138.907C10.8727 155.398 18.3344 170.348 30.4453 181.271C41.3711 187.743 54.5234 191.519 68.675 191.519C106.601 191.519 137.347 164.392 137.347 130.928L137.346 64.0338Z" fill="black"/>
<path d="M189.121 52.8483V45.8731C179.403 45.8855 169.877 43.4844 161.632 38.9441C168.93 45.9939 178.541 50.8554 189.121 52.8497M137.914 7.97931C137.667 6.73212 137.477 5.47661 137.345 4.21586V0H99.975V130.928C99.9156 146.19 85.8766 158.548 68.5625 158.548C63.6541 158.555 58.8128 157.542 54.4297 155.592C60.1695 162.238 69.2336 166.528 79.4352 166.528C96.7477 166.528 110.788 154.17 110.849 138.907V7.98L137.914 7.97931ZM78.0984 78.331V70.9041C74.9757 70.5278 71.8275 70.3393 68.6758 70.34C30.7461 70.34 0 97.4669 0 130.928C0 151.906 12.0836 170.394 30.4461 181.27C18.3352 170.347 10.8734 155.397 10.8734 138.906C10.8734 105.872 40.8375 79.0103 78.0984 78.331Z" fill="#00F2EA"/>
</g>
<defs>
<clipPath id="clip0_1365_621">
<rect width="200" height="200" fill="white"/>
</clipPath>
</defs>
</svg>
