<svg width="200" height="200" viewBox="0 0 200 200" fill="none" xmlns="http://www.w3.org/2000/svg">
<path fill-rule="evenodd" clip-rule="evenodd" d="M138.967 21.8999C112.749 16.0392 85.5598 16.0392 59.3417 21.8999L56.5167 22.5249C49.1418 24.1737 42.3684 27.8348 36.9489 33.1013C31.5294 38.3678 27.676 45.0336 25.8167 52.3582C19.1708 78.5459 19.1708 105.979 25.8167 132.167C27.5898 139.152 31.1784 145.545 36.2186 150.696C41.2588 155.847 47.5715 159.575 54.5167 161.5L58.3917 184.633C58.5154 185.368 58.8337 186.056 59.3136 186.626C59.7935 187.195 60.4174 187.626 61.1202 187.873C61.8231 188.119 62.5792 188.173 63.31 188.029C64.0407 187.884 64.7193 187.546 65.275 187.05L88.0333 166.692C105.117 167.734 122.263 166.368 138.967 162.633L141.8 162.008C149.175 160.359 155.948 156.698 161.368 151.432C166.787 146.165 170.641 139.5 172.5 132.175C179.145 105.987 179.145 78.5544 172.5 52.3666C170.64 45.0409 166.785 38.3743 161.364 33.1077C155.943 27.8411 149.168 24.1807 141.792 22.5332L138.967 21.8999ZM66.375 51.6832C64.8262 51.4578 63.247 51.7695 61.9 52.5666H61.7833C58.6583 54.3999 55.8417 56.7082 53.4417 59.4249C51.4417 61.7332 50.3583 64.0666 50.075 66.3166C49.9083 67.6499 50.025 68.9999 50.4167 70.2749L50.5667 70.3582C52.8167 76.9666 55.75 83.3249 59.3333 89.3082C63.9538 97.7123 69.6396 105.485 76.25 112.433L76.45 112.717L76.7667 112.95L76.9583 113.175L77.1917 113.375C84.1644 120.005 91.9552 125.718 100.375 130.375C110 135.617 115.842 138.092 119.35 139.125V139.175C120.375 139.492 121.308 139.633 122.25 139.633C125.238 139.412 128.066 138.198 130.283 136.183C132.992 133.783 135.283 130.958 137.067 127.817V127.758C138.742 124.592 138.175 121.608 135.758 119.583C130.904 115.342 125.655 111.575 120.083 108.333C116.35 106.308 112.558 107.533 111.025 109.583L107.75 113.717C106.067 115.767 103.017 115.483 103.017 115.483L102.933 115.533C80.175 109.725 74.1 86.6832 74.1 86.6832C74.1 86.6832 73.8167 83.5499 75.925 81.9499L80.025 78.6499C81.9917 77.0499 83.3583 73.2666 81.25 69.5332C78.03 63.9562 74.2703 58.7089 70.025 53.8666C69.0991 52.7269 67.8005 51.9508 66.3583 51.6749L66.375 51.6832ZM104.825 41.6666C103.72 41.6666 102.66 42.1055 101.879 42.8869C101.097 43.6683 100.658 44.7282 100.658 45.8332C100.658 46.9383 101.097 47.9981 101.879 48.7795C102.66 49.5609 103.72 49.9999 104.825 49.9999C115.367 49.9999 124.117 53.4416 131.042 60.0416C134.6 63.6499 137.375 67.9249 139.192 72.6082C141.017 77.2999 141.85 82.3082 141.633 87.3249C141.61 87.8721 141.695 88.4184 141.884 88.9327C142.072 89.447 142.359 89.9193 142.73 90.3224C143.479 91.1366 144.52 91.6201 145.625 91.6665C146.73 91.713 147.808 91.3185 148.623 90.5699C149.437 89.8213 149.92 88.78 149.967 87.6749C150.225 81.5039 149.201 75.3464 146.958 69.5916C144.706 63.8093 141.291 58.5509 136.925 54.1416L136.842 54.0582C128.25 45.8499 117.375 41.6666 104.825 41.6666ZM104.542 55.3666C103.437 55.3666 102.377 55.8055 101.595 56.5869C100.814 57.3683 100.375 58.4282 100.375 59.5332C100.375 60.6383 100.814 61.6981 101.595 62.4795C102.377 63.2609 103.437 63.6999 104.542 63.6999H104.683C112.283 64.2416 117.817 66.7749 121.692 70.9332C125.667 75.2166 127.725 80.5415 127.567 87.1249C127.541 88.2299 127.956 89.2999 128.719 90.0992C129.483 90.8986 130.532 91.362 131.637 91.3874C132.743 91.4128 133.812 90.9982 134.612 90.2348C135.411 89.4713 135.875 88.4216 135.9 87.3165C136.1 78.6749 133.317 71.2166 127.8 65.2666V65.2499C122.158 59.1999 114.417 55.9999 105.1 55.3749L104.958 55.3582L104.542 55.3666ZM104.383 69.3249C103.826 69.2757 103.264 69.3393 102.731 69.5121C102.199 69.6848 101.707 69.963 101.284 70.3302C100.862 70.6974 100.517 71.1459 100.272 71.649C100.027 72.1522 99.8852 72.6996 99.8561 73.2586C99.827 73.8176 99.9108 74.3768 100.103 74.9027C100.294 75.4286 100.59 75.9105 100.972 76.3196C101.354 76.7287 101.815 77.0566 102.326 77.2837C102.838 77.5108 103.39 77.6325 103.95 77.6416C107.433 77.8249 109.658 78.8749 111.058 80.2832C112.467 81.6999 113.517 83.9749 113.708 87.5332C113.719 88.0924 113.842 88.6437 114.07 89.1544C114.298 89.6651 114.626 90.1246 115.035 90.5057C115.445 90.8867 115.927 91.1814 116.452 91.3723C116.978 91.5631 117.537 91.6462 118.095 91.6165C118.654 91.5869 119.2 91.4451 119.703 91.1996C120.206 90.9542 120.653 90.6101 121.02 90.1878C121.387 89.7656 121.665 89.2738 121.837 88.7419C122.01 88.2099 122.074 87.6487 122.025 87.0916C121.758 82.0916 120.192 77.6749 116.983 74.4249C113.758 71.1749 109.367 69.5916 104.383 69.3249Z" fill="#7360F2"/>
</svg>
