<svg width="200" height="200" viewBox="0 0 200 200" fill="none" xmlns="http://www.w3.org/2000/svg">
<path d="M125.608 16.6665H74.4833C27.7666 16.6665 16.6666 27.7748 16.6666 74.3915V125.525C16.6666 172.225 27.6916 183.333 74.3916 183.333H125.525C172.225 183.333 183.333 172.308 183.333 125.608V74.4832C183.333 27.7665 172.308 16.6665 125.608 16.6665ZM151.217 135.583H139.058C134.458 135.583 133.075 131.858 124.825 123.608C117.625 116.667 114.583 115.8 112.758 115.8C110.242 115.8 109.55 116.492 109.55 119.967V130.9C109.55 133.858 108.592 135.592 100.867 135.592C93.3695 135.088 86.0993 132.81 79.655 128.946C73.2106 125.082 67.7764 119.742 63.8 113.367C54.3597 101.617 47.7911 87.826 44.6166 73.0915C44.6166 71.2665 45.3083 69.6165 48.7833 69.6165H60.9416C64.0666 69.6165 65.1916 71.0082 66.4083 74.2165C72.3083 91.5832 82.375 106.683 86.4583 106.683C88.025 106.683 88.7083 105.992 88.7083 102.083V84.1998C88.1916 76.0415 83.8583 75.3498 83.8583 72.3998C83.914 71.6217 84.2705 70.8959 84.8524 70.3763C85.4342 69.8567 86.1956 69.5842 86.975 69.6165H106.075C108.683 69.6165 109.55 70.9165 109.55 74.0415V98.1748C109.55 100.783 110.675 101.65 111.458 101.65C113.025 101.65 114.233 100.783 117.1 97.9165C123.257 90.4078 128.288 82.0422 132.033 73.0832C132.416 72.007 133.141 71.0857 134.096 70.4598C135.051 69.8339 136.185 69.5377 137.325 69.6165H149.483C153.125 69.6165 153.9 71.4415 153.125 74.0415C148.704 83.9451 143.234 93.3461 136.808 102.083C135.5 104.083 134.975 105.125 136.808 107.467C138.017 109.292 142.275 112.85 145.142 116.233C149.307 120.389 152.767 125.196 155.383 130.467C156.425 133.85 154.683 135.583 151.217 135.583Z" fill="#0077FF"/>
</svg>
