<svg width="200" height="200" viewBox="0 0 200 200" fill="none" xmlns="http://www.w3.org/2000/svg">
<g clip-path="url(#clip0_1365_612)">
<path d="M4.26794 98.8031C4.26326 115.607 8.68826 132.015 17.1023 146.477L3.46326 195.889L54.4258 182.63C68.5214 190.244 84.3144 194.234 100.363 194.235H100.405C153.386 194.235 196.513 151.457 196.536 98.8783C196.546 73.4 186.555 49.4419 168.404 31.4171C150.255 13.3938 126.119 3.4628 100.402 3.45117C47.4148 3.45117 4.2906 46.2264 4.26873 98.8031" fill="url(#paint0_linear_1365_612)"/>
<path d="M0.835938 98.7721C0.830469 116.181 5.41406 133.175 14.1281 148.155L0 199.339L52.7898 185.605C67.3352 193.474 83.7117 197.622 100.376 197.629H100.419C155.3 197.629 199.977 153.312 200 98.8512C200.009 72.4574 189.659 47.638 170.859 28.9674C152.057 10.2992 127.057 0.0108527 100.419 0C45.5281 0 0.857813 44.3101 0.835938 98.7721ZM32.2742 145.575L30.3031 142.471C22.0172 129.398 17.6437 114.291 17.65 98.7783C17.6672 53.5109 54.7953 16.6822 100.45 16.6822C122.559 16.6915 143.337 25.2434 158.966 40.7597C174.593 56.2775 183.192 76.9054 183.187 98.845C183.166 144.112 146.037 180.946 100.419 180.946H100.386C85.532 180.938 70.9641 176.98 58.2594 169.5L55.2359 167.721L23.9094 175.871L32.2742 145.575Z" fill="url(#paint1_linear_1365_612)"/>
<path d="M75.5297 57.4791C73.6656 53.3682 71.7039 53.2853 69.9312 53.2132C68.4797 53.1512 66.8203 53.1558 65.1625 53.1558C63.5031 53.1558 60.807 53.7752 58.5281 56.2442C56.2468 58.7155 49.8187 64.6876 49.8187 76.8341C49.8187 88.9806 58.7351 100.72 59.9781 102.369C61.2226 104.015 77.1914 129.739 102.482 139.635C123.501 147.859 127.778 146.223 132.34 145.811C136.902 145.4 147.062 139.84 149.134 134.075C151.209 128.311 151.209 123.37 150.587 122.337C149.965 121.309 148.305 120.691 145.817 119.457C143.329 118.223 131.095 112.249 128.815 111.425C126.534 110.602 124.875 110.191 123.216 112.663C121.556 115.131 116.791 120.691 115.339 122.337C113.888 123.988 112.436 124.193 109.948 122.958C107.459 121.719 99.4453 119.116 89.9383 110.705C82.5414 104.161 77.5476 96.0799 76.0961 93.6078C74.6445 91.1396 75.9406 89.8016 77.1883 88.5713C78.3062 87.4651 79.6773 85.6884 80.9226 84.2473C82.1633 82.8055 82.5773 81.7768 83.407 80.1303C84.2375 78.4822 83.8218 77.0403 83.2008 75.8055C82.5773 74.5706 77.7422 62.3605 75.5297 57.4791Z" fill="white"/>
</g>
<defs>
<linearGradient id="paint0_linear_1365_612" x1="9657.1" y1="19247.3" x2="9657.1" y2="3.45117" gradientUnits="userSpaceOnUse">
<stop stop-color="#1FAF38"/>
<stop offset="1" stop-color="#60D669"/>
</linearGradient>
<linearGradient id="paint1_linear_1365_612" x1="10000" y1="19933.9" x2="10000" y2="0" gradientUnits="userSpaceOnUse">
<stop stop-color="#F9F9F9"/>
<stop offset="1" stop-color="white"/>
</linearGradient>
<clipPath id="clip0_1365_612">
<rect width="200" height="200" fill="white"/>
</clipPath>
</defs>
</svg>
