<svg width="200" height="200" viewBox="0 0 200 200" fill="none" xmlns="http://www.w3.org/2000/svg">
<path d="M195.583 51.9232C194.436 47.6858 192.198 43.8227 189.093 40.7186C185.987 37.6145 182.122 35.3776 177.883 34.2308C162.363 30 99.8986 30 99.8986 30C99.8986 30 37.4314 30.1281 21.9111 34.3589C17.6716 35.5057 13.8067 37.7427 10.7013 40.847C7.59581 43.9512 5.35814 47.8145 4.21109 52.052C-0.483443 79.6155 -2.30454 121.616 4.33999 148.077C5.48716 152.314 7.72489 156.177 10.8303 159.281C13.9358 162.386 17.8006 164.622 22.04 165.769C37.5603 170 100.026 170 100.026 170C100.026 170 162.491 170 178.01 165.769C182.25 164.622 186.115 162.386 189.22 159.282C192.326 156.177 194.564 152.314 195.711 148.077C200.663 120.474 202.188 78.4997 195.583 51.9232Z" fill="#FF0000"/>
<path d="M80.0164 129.602L131.835 99.7215L80.0164 69.8408V129.602Z" fill="white"/>
</svg>
